ISO-10303-21;
HEADER;
FILE_DESCRIPTION(('FreeCAD Model'),'2;1');
FILE_NAME('Open CASCADE Shape Model','2025-07-29T08:20:30',(''),(''),
  'Open CASCADE STEP processor 7.8','FreeCAD','Unknown');
FILE_SCHEMA(('AUTOMOTIVE_DESIGN { 1 0 10303 214 1 1 1 1 }'));
ENDSEC;
DATA;
#1 = APPLICATION_PROTOCOL_DEFINITION('international standard',
  'automotive_design',2000,#2);
#2 = APPLICATION_CONTEXT(
  'core data for automotive mechanical design processes');
#3 = SHAPE_DEFINITION_REPRESENTATION(#4,#10);
#4 = PRODUCT_DEFINITION_SHAPE('','',#5);
#5 = PRODUCT_DEFINITION('design','',#6,#9);
#6 = PRODUCT_DEFINITION_FORMATION('','',#7);
#7 = PRODUCT('push-on-off','push-on-off','',(#8));
#8 = PRODUCT_CONTEXT('',#2,'mechanical');
#9 = PRODUCT_DEFINITION_CONTEXT('part definition',#2,'design');
#10 = SHAPE_REPRESENTATION('',(#11,#15,#19,#23),#27);
#11 = AXIS2_PLACEMENT_3D('',#12,#13,#14);
#12 = CARTESIAN_POINT('',(0.,0.,0.));
#13 = DIRECTION('',(0.,0.,1.));
#14 = DIRECTION('',(1.,0.,-0.));
#15 = AXIS2_PLACEMENT_3D('',#16,#17,#18);
#16 = CARTESIAN_POINT('',(0.,0.,0.));
#17 = DIRECTION('',(0.,0.,1.));
#18 = DIRECTION('',(1.,0.,0.));
#19 = AXIS2_PLACEMENT_3D('',#20,#21,#22);
#20 = CARTESIAN_POINT('',(0.,0.,0.));
#21 = DIRECTION('',(0.,0.,1.));
#22 = DIRECTION('',(1.,0.,0.));
#23 = AXIS2_PLACEMENT_3D('',#24,#25,#26);
#24 = CARTESIAN_POINT('',(0.,0.,0.));
#25 = DIRECTION('',(0.,0.,1.));
#26 = DIRECTION('',(1.,0.,0.));
#27 = ( GEOMETRIC_REPRESENTATION_CONTEXT(3) 
GLOBAL_UNCERTAINTY_ASSIGNED_CONTEXT((#31)) GLOBAL_UNIT_ASSIGNED_CONTEXT(
(#28,#29,#30)) REPRESENTATION_CONTEXT('Context #1',
  '3D Context with UNIT and UNCERTAINTY') );
#28 = ( LENGTH_UNIT() NAMED_UNIT(*) SI_UNIT(.MILLI.,.METRE.) );
#29 = ( NAMED_UNIT(*) PLANE_ANGLE_UNIT() SI_UNIT($,.RADIAN.) );
#30 = ( NAMED_UNIT(*) SI_UNIT($,.STERADIAN.) SOLID_ANGLE_UNIT() );
#31 = UNCERTAINTY_MEASURE_WITH_UNIT(LENGTH_MEASURE(1.E-07),#28,
  'distance_accuracy_value','confusion accuracy');
#32 = PRODUCT_RELATED_PRODUCT_CATEGORY('part',$,(#7));
#33 = SHAPE_DEFINITION_REPRESENTATION(#34,#40);
#34 = PRODUCT_DEFINITION_SHAPE('','',#35);
#35 = PRODUCT_DEFINITION('design','',#36,#39);
#36 = PRODUCT_DEFINITION_FORMATION('','',#37);
#37 = PRODUCT('base','base','',(#38));
#38 = PRODUCT_CONTEXT('',#2,'mechanical');
#39 = PRODUCT_DEFINITION_CONTEXT('part definition',#2,'design');
#40 = ADVANCED_BREP_SHAPE_REPRESENTATION('',(#11,#41),#291);
#41 = MANIFOLD_SOLID_BREP('',#42);
#42 = CLOSED_SHELL('',(#43,#148,#181,#191,#212,#237,#257,#282));
#43 = ADVANCED_FACE('',(#44),#120,.T.);
#44 = FACE_BOUND('',#45,.T.);
#45 = EDGE_LOOP('',(#46,#56,#85,#93));
#46 = ORIENTED_EDGE('',*,*,#47,.T.);
#47 = EDGE_CURVE('',#48,#50,#52,.T.);
#48 = VERTEX_POINT('',#49);
#49 = CARTESIAN_POINT('',(-4.505253999994,-3.974691000011,0.));
#50 = VERTEX_POINT('',#51);
#51 = CARTESIAN_POINT('',(-4.505253999994,-3.974691000011,3.8));
#52 = LINE('',#53,#54);
#53 = CARTESIAN_POINT('',(-4.505253999994,-3.974691000011,0.));
#54 = VECTOR('',#55,1.);
#55 = DIRECTION('',(0.,0.,1.));
#56 = ORIENTED_EDGE('',*,*,#57,.T.);
#57 = EDGE_CURVE('',#50,#58,#60,.T.);
#58 = VERTEX_POINT('',#59);
#59 = CARTESIAN_POINT('',(4.435846000048,-3.982964984189,3.8));
#60 = B_SPLINE_CURVE_WITH_KNOTS('',3,(#61,#62,#63,#64,#65,#66,#67,#68,
    #69,#70,#71,#72,#73,#74,#75,#76,#77,#78,#79,#80,#81,#82,#83,#84),
  .UNSPECIFIED.,.F.,.F.,(4,1,1,1,1,1,1,1,1,1,1,1,1,1,1,1,1,1,1,1,1,4),(
    0.,4.761904761905E-02,9.52380952381E-02,0.142857142857,
    0.190476190476,0.238095238095,0.285714285714,0.333333333333,
    0.380952380952,0.428571428571,0.47619047619,0.52380952381,
    0.571428571429,0.619047619048,0.666666666667,0.714285714286,
    0.761904761905,0.809523809524,0.857142857143,0.904761904762,
    0.952380952381,1.),.QUASI_UNIFORM_KNOTS.);
#61 = CARTESIAN_POINT('',(-4.505253999994,-3.974691000011,3.8));
#62 = CARTESIAN_POINT('',(-4.90848,-3.31422,3.8));
#63 = CARTESIAN_POINT('',(-5.58961,-1.98291,3.8));
#64 = CARTESIAN_POINT('',(-5.86826,-0.88897,3.8));
#65 = CARTESIAN_POINT('',(-5.97632,0.105174374022,3.8));
#66 = CARTESIAN_POINT('',(-5.75474,1.43307,3.8));
#67 = CARTESIAN_POINT('',(-5.23873,2.8263,3.8));
#68 = CARTESIAN_POINT('',(-4.80469,3.4242,3.8));
#69 = CARTESIAN_POINT('',(-4.39911,3.93962,3.8));
#70 = CARTESIAN_POINT('',(-4.027340000008,3.964970000001,3.8));
#71 = CARTESIAN_POINT('',(-2.295199999955,3.96496999999,3.8));
#72 = CARTESIAN_POINT('',(0.248108000065,3.964969999999,3.8));
#73 = CARTESIAN_POINT('',(2.234009997091,3.964970000519,3.8));
#74 = CARTESIAN_POINT('',(3.881450814133,3.964969996003,3.8));
#75 = CARTESIAN_POINT('',(4.582870001296,3.964970003985,3.8));
#76 = CARTESIAN_POINT('',(4.851089999934,3.720429918796,3.8));
#77 = CARTESIAN_POINT('',(5.300874778235,2.993276918067,3.8));
#78 = CARTESIAN_POINT('',(5.714678712953,2.082910890795,3.8));
#79 = CARTESIAN_POINT('',(6.01063502352,1.278011103812,3.8));
#80 = CARTESIAN_POINT('',(6.179544333918,5.304252458379E-02,3.8));
#81 = CARTESIAN_POINT('',(6.087903576705,-0.942749608151,3.8));
#82 = CARTESIAN_POINT('',(5.709150188832,-2.275781920477,3.8));
#83 = CARTESIAN_POINT('',(5.106100674441,-3.240833815558,3.8));
#84 = CARTESIAN_POINT('',(4.435846000048,-3.982964984189,3.8));
#85 = ORIENTED_EDGE('',*,*,#86,.F.);
#86 = EDGE_CURVE('',#87,#58,#89,.T.);
#87 = VERTEX_POINT('',#88);
#88 = CARTESIAN_POINT('',(4.435846000048,-3.982964984189,0.));
#89 = LINE('',#90,#91);
#90 = CARTESIAN_POINT('',(4.435846000048,-3.982964984189,0.));
#91 = VECTOR('',#92,1.);
#92 = DIRECTION('',(0.,0.,1.));
#93 = ORIENTED_EDGE('',*,*,#94,.F.);
#94 = EDGE_CURVE('',#48,#87,#95,.T.);
#95 = B_SPLINE_CURVE_WITH_KNOTS('',3,(#96,#97,#98,#99,#100,#101,#102,
    #103,#104,#105,#106,#107,#108,#109,#110,#111,#112,#113,#114,#115,
    #116,#117,#118,#119),.UNSPECIFIED.,.F.,.F.,(4,1,1,1,1,1,1,1,1,1,1,1,
    1,1,1,1,1,1,1,1,1,4),(0.,4.761904761905E-02,9.52380952381E-02,
    0.142857142857,0.190476190476,0.238095238095,0.285714285714,
    0.333333333333,0.380952380952,0.428571428571,0.47619047619,
    0.52380952381,0.571428571429,0.619047619048,0.666666666667,
    0.714285714286,0.761904761905,0.809523809524,0.857142857143,
    0.904761904762,0.952380952381,1.),.QUASI_UNIFORM_KNOTS.);
#96 = CARTESIAN_POINT('',(-4.505253999994,-3.974691000011,0.));
#97 = CARTESIAN_POINT('',(-4.90848,-3.31422,0.));
#98 = CARTESIAN_POINT('',(-5.58961,-1.98291,0.));
#99 = CARTESIAN_POINT('',(-5.86826,-0.88897,0.));
#100 = CARTESIAN_POINT('',(-5.97632,0.105174374022,0.));
#101 = CARTESIAN_POINT('',(-5.75474,1.43307,0.));
#102 = CARTESIAN_POINT('',(-5.23873,2.8263,0.));
#103 = CARTESIAN_POINT('',(-4.80469,3.4242,0.));
#104 = CARTESIAN_POINT('',(-4.39911,3.93962,0.));
#105 = CARTESIAN_POINT('',(-4.027340000008,3.964970000001,0.));
#106 = CARTESIAN_POINT('',(-2.295199999955,3.96496999999,0.));
#107 = CARTESIAN_POINT('',(0.248108000065,3.964969999999,0.));
#108 = CARTESIAN_POINT('',(2.234009997091,3.964970000519,0.));
#109 = CARTESIAN_POINT('',(3.881450814133,3.964969996003,0.));
#110 = CARTESIAN_POINT('',(4.582870001296,3.964970003985,0.));
#111 = CARTESIAN_POINT('',(4.851089999934,3.720429918796,0.));
#112 = CARTESIAN_POINT('',(5.300874778235,2.993276918067,0.));
#113 = CARTESIAN_POINT('',(5.714678712953,2.082910890795,0.));
#114 = CARTESIAN_POINT('',(6.01063502352,1.278011103812,0.));
#115 = CARTESIAN_POINT('',(6.179544333918,5.304252458379E-02,0.));
#116 = CARTESIAN_POINT('',(6.087903576705,-0.942749608151,0.));
#117 = CARTESIAN_POINT('',(5.709150188832,-2.275781920477,0.));
#118 = CARTESIAN_POINT('',(5.106100674441,-3.240833815558,0.));
#119 = CARTESIAN_POINT('',(4.435846000048,-3.982964984189,0.));
#120 = SURFACE_OF_LINEAR_EXTRUSION('',#121,#146);
#121 = B_SPLINE_CURVE_WITH_KNOTS('',3,(#122,#123,#124,#125,#126,#127,
    #128,#129,#130,#131,#132,#133,#134,#135,#136,#137,#138,#139,#140,
    #141,#142,#143,#144,#145),.UNSPECIFIED.,.F.,.F.,(4,1,1,1,1,1,1,1,1,1
    ,1,1,1,1,1,1,1,1,1,1,1,4),(0.,4.761904761905E-02,9.52380952381E-02,
    0.142857142857,0.190476190476,0.238095238095,0.285714285714,
    0.333333333333,0.380952380952,0.428571428571,0.47619047619,
    0.52380952381,0.571428571429,0.619047619048,0.666666666667,
    0.714285714286,0.761904761905,0.809523809524,0.857142857143,
    0.904761904762,0.952380952381,1.),.QUASI_UNIFORM_KNOTS.);
#122 = CARTESIAN_POINT('',(-4.505253999994,-3.974691000011,0.));
#123 = CARTESIAN_POINT('',(-4.90848,-3.31422,0.));
#124 = CARTESIAN_POINT('',(-5.58961,-1.98291,0.));
#125 = CARTESIAN_POINT('',(-5.86826,-0.88897,0.));
#126 = CARTESIAN_POINT('',(-5.97632,0.105174374022,0.));
#127 = CARTESIAN_POINT('',(-5.75474,1.43307,0.));
#128 = CARTESIAN_POINT('',(-5.23873,2.8263,0.));
#129 = CARTESIAN_POINT('',(-4.80469,3.4242,0.));
#130 = CARTESIAN_POINT('',(-4.39911,3.93962,0.));
#131 = CARTESIAN_POINT('',(-4.027340000008,3.964970000001,0.));
#132 = CARTESIAN_POINT('',(-2.295199999955,3.96496999999,0.));
#133 = CARTESIAN_POINT('',(0.248108000065,3.964969999999,0.));
#134 = CARTESIAN_POINT('',(2.234009997091,3.964970000519,0.));
#135 = CARTESIAN_POINT('',(3.881450814133,3.964969996003,0.));
#136 = CARTESIAN_POINT('',(4.582870001296,3.964970003985,0.));
#137 = CARTESIAN_POINT('',(4.851089999934,3.720429918796,0.));
#138 = CARTESIAN_POINT('',(5.300874778235,2.993276918067,0.));
#139 = CARTESIAN_POINT('',(5.714678712953,2.082910890795,0.));
#140 = CARTESIAN_POINT('',(6.01063502352,1.278011103812,0.));
#141 = CARTESIAN_POINT('',(6.179544333918,5.304252458379E-02,0.));
#142 = CARTESIAN_POINT('',(6.087903576705,-0.942749608151,0.));
#143 = CARTESIAN_POINT('',(5.709150188832,-2.275781920477,0.));
#144 = CARTESIAN_POINT('',(5.106100674441,-3.240833815558,0.));
#145 = CARTESIAN_POINT('',(4.435846000048,-3.982964984189,0.));
#146 = VECTOR('',#147,1.);
#147 = DIRECTION('',(-0.,-0.,-1.));
#148 = ADVANCED_FACE('',(#149),#171,.F.);
#149 = FACE_BOUND('',#150,.F.);
#150 = EDGE_LOOP('',(#151,#152,#161,#162));
#151 = ORIENTED_EDGE('',*,*,#47,.T.);
#152 = ORIENTED_EDGE('',*,*,#153,.T.);
#153 = EDGE_CURVE('',#50,#58,#154,.T.);
#154 = B_SPLINE_CURVE_WITH_KNOTS('',3,(#155,#156,#157,#158,#159,#160),
  .UNSPECIFIED.,.F.,.F.,(4,1,1,4),(0.,0.333333333333,0.666666666667,1.),
  .QUASI_UNIFORM_KNOTS.);
#155 = CARTESIAN_POINT('',(-4.505253999994,-3.974691000011,3.8));
#156 = CARTESIAN_POINT('',(3.994765999997,-3.975281000008,3.8));
#157 = CARTESIAN_POINT('',(4.435846000048,-3.982964984189,3.8));
#158 = CARTESIAN_POINT('',(4.435846000048,-3.982964984189,3.8));
#159 = CARTESIAN_POINT('',(4.435846000048,-3.982964984189,3.8));
#160 = CARTESIAN_POINT('',(4.435846000048,-3.982964984189,3.8));
#161 = ORIENTED_EDGE('',*,*,#86,.F.);
#162 = ORIENTED_EDGE('',*,*,#163,.F.);
#163 = EDGE_CURVE('',#48,#87,#164,.T.);
#164 = B_SPLINE_CURVE_WITH_KNOTS('',3,(#165,#166,#167,#168,#169,#170),
  .UNSPECIFIED.,.F.,.F.,(4,1,1,4),(0.,0.333333333333,0.666666666667,1.),
  .QUASI_UNIFORM_KNOTS.);
#165 = CARTESIAN_POINT('',(-4.505253999994,-3.974691000011,0.));
#166 = CARTESIAN_POINT('',(3.994765999997,-3.975281000008,0.));
#167 = CARTESIAN_POINT('',(4.435846000048,-3.982964984189,0.));
#168 = CARTESIAN_POINT('',(4.435846000048,-3.982964984189,0.));
#169 = CARTESIAN_POINT('',(4.435846000048,-3.982964984189,0.));
#170 = CARTESIAN_POINT('',(4.435846000048,-3.982964984189,0.));
#171 = SURFACE_OF_LINEAR_EXTRUSION('',#172,#179);
#172 = B_SPLINE_CURVE_WITH_KNOTS('',3,(#173,#174,#175,#176,#177,#178),
  .UNSPECIFIED.,.F.,.F.,(4,1,1,4),(0.,0.333333333333,0.666666666667,1.),
  .QUASI_UNIFORM_KNOTS.);
#173 = CARTESIAN_POINT('',(-4.505253999994,-3.974691000011,0.));
#174 = CARTESIAN_POINT('',(3.994765999997,-3.975281000008,0.));
#175 = CARTESIAN_POINT('',(4.435846000048,-3.982964984189,0.));
#176 = CARTESIAN_POINT('',(4.435846000048,-3.982964984189,0.));
#177 = CARTESIAN_POINT('',(4.435846000048,-3.982964984189,0.));
#178 = CARTESIAN_POINT('',(4.435846000048,-3.982964984189,0.));
#179 = VECTOR('',#180,1.);
#180 = DIRECTION('',(-0.,-0.,-1.));
#181 = ADVANCED_FACE('',(#182),#186,.F.);
#182 = FACE_BOUND('',#183,.T.);
#183 = EDGE_LOOP('',(#184,#185));
#184 = ORIENTED_EDGE('',*,*,#94,.T.);
#185 = ORIENTED_EDGE('',*,*,#163,.F.);
#186 = PLANE('',#187);
#187 = AXIS2_PLACEMENT_3D('',#188,#189,#190);
#188 = CARTESIAN_POINT('',(9.020540372026E-02,-1.27738994831E-02,0.));
#189 = DIRECTION('',(0.,0.,1.));
#190 = DIRECTION('',(1.,0.,0.));
#191 = ADVANCED_FACE('',(#192,#196),#207,.T.);
#192 = FACE_BOUND('',#193,.T.);
#193 = EDGE_LOOP('',(#194,#195));
#194 = ORIENTED_EDGE('',*,*,#57,.F.);
#195 = ORIENTED_EDGE('',*,*,#153,.T.);
#196 = FACE_BOUND('',#197,.T.);
#197 = EDGE_LOOP('',(#198));
#198 = ORIENTED_EDGE('',*,*,#199,.F.);
#199 = EDGE_CURVE('',#200,#200,#202,.T.);
#200 = VERTEX_POINT('',#201);
#201 = CARTESIAN_POINT('',(3.614205564035,-4.89E-03,3.8));
#202 = CIRCLE('',#203,3.432656564035);
#203 = AXIS2_PLACEMENT_3D('',#204,#205,#206);
#204 = CARTESIAN_POINT('',(0.181549,-4.89E-03,3.8));
#205 = DIRECTION('',(0.,0.,1.));
#206 = DIRECTION('',(1.,0.,0.));
#207 = PLANE('',#208);
#208 = AXIS2_PLACEMENT_3D('',#209,#210,#211);
#209 = CARTESIAN_POINT('',(9.020540372026E-02,-1.27738994831E-02,3.8));
#210 = DIRECTION('',(0.,0.,1.));
#211 = DIRECTION('',(1.,0.,0.));
#212 = ADVANCED_FACE('',(#213),#232,.T.);
#213 = FACE_BOUND('',#214,.F.);
#214 = EDGE_LOOP('',(#215,#223,#230,#231));
#215 = ORIENTED_EDGE('',*,*,#216,.T.);
#216 = EDGE_CURVE('',#200,#217,#219,.T.);
#217 = VERTEX_POINT('',#218);
#218 = CARTESIAN_POINT('',(3.614205564035,-4.89E-03,5.8));
#219 = LINE('',#220,#221);
#220 = CARTESIAN_POINT('',(3.614205564035,-4.89E-03,3.8));
#221 = VECTOR('',#222,1.);
#222 = DIRECTION('',(0.,0.,1.));
#223 = ORIENTED_EDGE('',*,*,#224,.T.);
#224 = EDGE_CURVE('',#217,#217,#225,.T.);
#225 = CIRCLE('',#226,3.432656564035);
#226 = AXIS2_PLACEMENT_3D('',#227,#228,#229);
#227 = CARTESIAN_POINT('',(0.181549,-4.89E-03,5.8));
#228 = DIRECTION('',(0.,0.,1.));
#229 = DIRECTION('',(1.,0.,0.));
#230 = ORIENTED_EDGE('',*,*,#216,.F.);
#231 = ORIENTED_EDGE('',*,*,#199,.F.);
#232 = CYLINDRICAL_SURFACE('',#233,3.432656564035);
#233 = AXIS2_PLACEMENT_3D('',#234,#235,#236);
#234 = CARTESIAN_POINT('',(0.181549,-4.89E-03,3.8));
#235 = DIRECTION('',(-0.,-0.,-1.));
#236 = DIRECTION('',(1.,0.,0.));
#237 = ADVANCED_FACE('',(#238,#241),#252,.T.);
#238 = FACE_BOUND('',#239,.T.);
#239 = EDGE_LOOP('',(#240));
#240 = ORIENTED_EDGE('',*,*,#224,.T.);
#241 = FACE_BOUND('',#242,.T.);
#242 = EDGE_LOOP('',(#243));
#243 = ORIENTED_EDGE('',*,*,#244,.F.);
#244 = EDGE_CURVE('',#245,#245,#247,.T.);
#245 = VERTEX_POINT('',#246);
#246 = CARTESIAN_POINT('',(2.239427,-9.7444E-02,5.8));
#247 = CIRCLE('',#248,2.077115);
#248 = AXIS2_PLACEMENT_3D('',#249,#250,#251);
#249 = CARTESIAN_POINT('',(0.162312,-9.7444E-02,5.8));
#250 = DIRECTION('',(0.,0.,1.));
#251 = DIRECTION('',(1.,0.,0.));
#252 = PLANE('',#253);
#253 = AXIS2_PLACEMENT_3D('',#254,#255,#256);
#254 = CARTESIAN_POINT('',(0.181549,-4.89E-03,5.8));
#255 = DIRECTION('',(0.,0.,1.));
#256 = DIRECTION('',(1.,0.,0.));
#257 = ADVANCED_FACE('',(#258),#277,.T.);
#258 = FACE_BOUND('',#259,.F.);
#259 = EDGE_LOOP('',(#260,#268,#275,#276));
#260 = ORIENTED_EDGE('',*,*,#261,.T.);
#261 = EDGE_CURVE('',#245,#262,#264,.T.);
#262 = VERTEX_POINT('',#263);
#263 = CARTESIAN_POINT('',(2.239427,-9.7444E-02,8.05));
#264 = LINE('',#265,#266);
#265 = CARTESIAN_POINT('',(2.239427,-9.7444E-02,5.8));
#266 = VECTOR('',#267,1.);
#267 = DIRECTION('',(0.,0.,1.));
#268 = ORIENTED_EDGE('',*,*,#269,.T.);
#269 = EDGE_CURVE('',#262,#262,#270,.T.);
#270 = CIRCLE('',#271,2.077115);
#271 = AXIS2_PLACEMENT_3D('',#272,#273,#274);
#272 = CARTESIAN_POINT('',(0.162312,-9.7444E-02,8.05));
#273 = DIRECTION('',(0.,0.,1.));
#274 = DIRECTION('',(1.,0.,0.));
#275 = ORIENTED_EDGE('',*,*,#261,.F.);
#276 = ORIENTED_EDGE('',*,*,#244,.F.);
#277 = CYLINDRICAL_SURFACE('',#278,2.077115);
#278 = AXIS2_PLACEMENT_3D('',#279,#280,#281);
#279 = CARTESIAN_POINT('',(0.162312,-9.7444E-02,5.8));
#280 = DIRECTION('',(-0.,-0.,-1.));
#281 = DIRECTION('',(1.,0.,0.));
#282 = ADVANCED_FACE('',(#283),#286,.T.);
#283 = FACE_BOUND('',#284,.T.);
#284 = EDGE_LOOP('',(#285));
#285 = ORIENTED_EDGE('',*,*,#269,.T.);
#286 = PLANE('',#287);
#287 = AXIS2_PLACEMENT_3D('',#288,#289,#290);
#288 = CARTESIAN_POINT('',(0.162312,-9.7444E-02,8.05));
#289 = DIRECTION('',(0.,0.,1.));
#290 = DIRECTION('',(1.,0.,0.));
#291 = ( GEOMETRIC_REPRESENTATION_CONTEXT(3) 
GLOBAL_UNCERTAINTY_ASSIGNED_CONTEXT((#295)) GLOBAL_UNIT_ASSIGNED_CONTEXT
((#292,#293,#294)) REPRESENTATION_CONTEXT('Context #1',
  '3D Context with UNIT and UNCERTAINTY') );
#292 = ( LENGTH_UNIT() NAMED_UNIT(*) SI_UNIT(.MILLI.,.METRE.) );
#293 = ( NAMED_UNIT(*) PLANE_ANGLE_UNIT() SI_UNIT($,.RADIAN.) );
#294 = ( NAMED_UNIT(*) SI_UNIT($,.STERADIAN.) SOLID_ANGLE_UNIT() );
#295 = UNCERTAINTY_MEASURE_WITH_UNIT(LENGTH_MEASURE(1.E-07),#292,
  'distance_accuracy_value','confusion accuracy');
#296 = CONTEXT_DEPENDENT_SHAPE_REPRESENTATION(#297,#299);
#297 = ( REPRESENTATION_RELATIONSHIP('','',#40,#10) 
REPRESENTATION_RELATIONSHIP_WITH_TRANSFORMATION(#298) 
SHAPE_REPRESENTATION_RELATIONSHIP() );
#298 = ITEM_DEFINED_TRANSFORMATION('','',#11,#15);
#299 = PRODUCT_DEFINITION_SHAPE('Placement','Placement of an item',#300
  );
#300 = NEXT_ASSEMBLY_USAGE_OCCURRENCE('1','base','',#5,#35,$);
#301 = PRODUCT_RELATED_PRODUCT_CATEGORY('part',$,(#37));
#302 = SHAPE_DEFINITION_REPRESENTATION(#303,#309);
#303 = PRODUCT_DEFINITION_SHAPE('','',#304);
#304 = PRODUCT_DEFINITION('design','',#305,#308);
#305 = PRODUCT_DEFINITION_FORMATION('','',#306);
#306 = PRODUCT('lftleg','lftleg','',(#307));
#307 = PRODUCT_CONTEXT('',#2,'mechanical');
#308 = PRODUCT_DEFINITION_CONTEXT('part definition',#2,'design');
#309 = ADVANCED_BREP_SHAPE_REPRESENTATION('',(#11,#310),#456);
#310 = MANIFOLD_SOLID_BREP('',#311);
#311 = CLOSED_SHELL('',(#312,#438,#447));
#312 = ADVANCED_FACE('',(#313),#400,.F.);
#313 = FACE_BOUND('',#314,.F.);
#314 = EDGE_LOOP('',(#315,#325,#362,#363));
#315 = ORIENTED_EDGE('',*,*,#316,.T.);
#316 = EDGE_CURVE('',#317,#319,#321,.T.);
#317 = VERTEX_POINT('',#318);
#318 = CARTESIAN_POINT('',(-5.51923,2.15187,0.));
#319 = VERTEX_POINT('',#320);
#320 = CARTESIAN_POINT('',(-5.51923,2.15187,0.25));
#321 = LINE('',#322,#323);
#322 = CARTESIAN_POINT('',(-5.51923,2.15187,0.));
#323 = VECTOR('',#324,1.);
#324 = DIRECTION('',(0.,0.,1.));
#325 = ORIENTED_EDGE('',*,*,#326,.T.);
#326 = EDGE_CURVE('',#319,#319,#327,.T.);
#327 = B_SPLINE_CURVE_WITH_KNOTS('',3,(#328,#329,#330,#331,#332,#333,
    #334,#335,#336,#337,#338,#339,#340,#341,#342,#343,#344,#345,#346,
    #347,#348,#349,#350,#351,#352,#353,#354,#355,#356,#357,#358,#359,
    #360,#361),.UNSPECIFIED.,.T.,.F.,(4,1,1,1,1,1,1,1,1,1,1,1,1,1,1,1,1,
    1,1,1,1,1,1,1,1,1,1,1,1,1,1,4),(0.,3.225806451613E-02,
    6.451612903226E-02,9.677419354839E-02,0.129032258065,0.161290322581,
    0.193548387097,0.225806451613,0.258064516129,0.290322580645,
    0.322580645161,0.354838709677,0.387096774194,0.41935483871,
    0.451612903226,0.483870967742,0.516129032258,0.548387096774,
    0.58064516129,0.612903225806,0.645161290323,0.677419354839,
    0.709677419355,0.741935483871,0.774193548387,0.806451612903,
    0.838709677419,0.870967741935,0.903225806452,0.935483870968,
    0.967741935484,1.),.QUASI_UNIFORM_KNOTS.);
#328 = CARTESIAN_POINT('',(-5.51923,2.15187,0.25));
#329 = CARTESIAN_POINT('',(-6.67362,2.15187,0.25));
#330 = CARTESIAN_POINT('',(-6.75839,2.07178,0.25));
#331 = CARTESIAN_POINT('',(-6.87618,1.94456,0.25));
#332 = CARTESIAN_POINT('',(-6.87618,1.81735,0.25));
#333 = CARTESIAN_POINT('',(-6.87618,1.10983,0.25));
#334 = CARTESIAN_POINT('',(-7.19447,1.1297,0.25));
#335 = CARTESIAN_POINT('',(-10.2479,1.1297,0.25));
#336 = CARTESIAN_POINT('',(-10.4587,0.901832,0.25));
#337 = CARTESIAN_POINT('',(-10.6485,0.529279106511,0.25));
#338 = CARTESIAN_POINT('',(-10.6203,3.72733E-02,0.25));
#339 = CARTESIAN_POINT('',(-10.3841,-0.435134,0.25));
#340 = CARTESIAN_POINT('',(-10.051,-0.658591,0.25));
#341 = CARTESIAN_POINT('',(-9.90339,-0.756996,0.25));
#342 = CARTESIAN_POINT('',(-6.86748,-0.756996,0.25));
#343 = CARTESIAN_POINT('',(-6.82354,-0.843653,0.25));
#344 = CARTESIAN_POINT('',(-6.833882290342,-1.03759,0.25));
#345 = CARTESIAN_POINT('',(-6.83388,-1.90128,0.25));
#346 = CARTESIAN_POINT('',(-6.74829,-2.01102,0.25));
#347 = CARTESIAN_POINT('',(-6.56282,-2.11155,0.25));
#348 = CARTESIAN_POINT('',(-6.43976,-2.12888,0.25));
#349 = CARTESIAN_POINT('',(-5.76893,-2.12888,0.25));
#350 = CARTESIAN_POINT('',(-5.5523,-2.11155,0.25));
#351 = CARTESIAN_POINT('',(-5.55531,-2.09252,0.25));
#352 = CARTESIAN_POINT('',(-5.65088,-1.77575,0.25));
#353 = CARTESIAN_POINT('',(-5.73337,-1.47134,0.25));
#354 = CARTESIAN_POINT('',(-5.81368,-1.2271,0.25));
#355 = CARTESIAN_POINT('',(-5.87958,-0.738747,0.25));
#356 = CARTESIAN_POINT('',(-5.9224,-0.311393,0.25));
#357 = CARTESIAN_POINT('',(-5.94471,-7.71976E-02,0.25));
#358 = CARTESIAN_POINT('',(-5.89781,0.634613,0.25));
#359 = CARTESIAN_POINT('',(-5.82956,1.10727,0.25));
#360 = CARTESIAN_POINT('',(-5.68111,1.67036,0.25));
#361 = CARTESIAN_POINT('',(-5.51923,2.15187,0.25));
#362 = ORIENTED_EDGE('',*,*,#316,.F.);
#363 = ORIENTED_EDGE('',*,*,#364,.F.);
#364 = EDGE_CURVE('',#317,#317,#365,.T.);
#365 = B_SPLINE_CURVE_WITH_KNOTS('',3,(#366,#367,#368,#369,#370,#371,
    #372,#373,#374,#375,#376,#377,#378,#379,#380,#381,#382,#383,#384,
    #385,#386,#387,#388,#389,#390,#391,#392,#393,#394,#395,#396,#397,
    #398,#399),.UNSPECIFIED.,.T.,.F.,(4,1,1,1,1,1,1,1,1,1,1,1,1,1,1,1,1,
    1,1,1,1,1,1,1,1,1,1,1,1,1,1,4),(0.,3.225806451613E-02,
    6.451612903226E-02,9.677419354839E-02,0.129032258065,0.161290322581,
    0.193548387097,0.225806451613,0.258064516129,0.290322580645,
    0.322580645161,0.354838709677,0.387096774194,0.41935483871,
    0.451612903226,0.483870967742,0.516129032258,0.548387096774,
    0.58064516129,0.612903225806,0.645161290323,0.677419354839,
    0.709677419355,0.741935483871,0.774193548387,0.806451612903,
    0.838709677419,0.870967741935,0.903225806452,0.935483870968,
    0.967741935484,1.),.QUASI_UNIFORM_KNOTS.);
#366 = CARTESIAN_POINT('',(-5.51923,2.15187,0.));
#367 = CARTESIAN_POINT('',(-6.67362,2.15187,0.));
#368 = CARTESIAN_POINT('',(-6.75839,2.07178,0.));
#369 = CARTESIAN_POINT('',(-6.87618,1.94456,0.));
#370 = CARTESIAN_POINT('',(-6.87618,1.81735,0.));
#371 = CARTESIAN_POINT('',(-6.87618,1.10983,0.));
#372 = CARTESIAN_POINT('',(-7.19447,1.1297,0.));
#373 = CARTESIAN_POINT('',(-10.2479,1.1297,0.));
#374 = CARTESIAN_POINT('',(-10.4587,0.901832,0.));
#375 = CARTESIAN_POINT('',(-10.6485,0.529279106511,0.));
#376 = CARTESIAN_POINT('',(-10.6203,3.72733E-02,0.));
#377 = CARTESIAN_POINT('',(-10.3841,-0.435134,0.));
#378 = CARTESIAN_POINT('',(-10.051,-0.658591,0.));
#379 = CARTESIAN_POINT('',(-9.90339,-0.756996,0.));
#380 = CARTESIAN_POINT('',(-6.86748,-0.756996,0.));
#381 = CARTESIAN_POINT('',(-6.82354,-0.843653,0.));
#382 = CARTESIAN_POINT('',(-6.833882290342,-1.03759,0.));
#383 = CARTESIAN_POINT('',(-6.83388,-1.90128,0.));
#384 = CARTESIAN_POINT('',(-6.74829,-2.01102,0.));
#385 = CARTESIAN_POINT('',(-6.56282,-2.11155,0.));
#386 = CARTESIAN_POINT('',(-6.43976,-2.12888,0.));
#387 = CARTESIAN_POINT('',(-5.76893,-2.12888,0.));
#388 = CARTESIAN_POINT('',(-5.5523,-2.11155,0.));
#389 = CARTESIAN_POINT('',(-5.55531,-2.09252,0.));
#390 = CARTESIAN_POINT('',(-5.65088,-1.77575,0.));
#391 = CARTESIAN_POINT('',(-5.73337,-1.47134,0.));
#392 = CARTESIAN_POINT('',(-5.81368,-1.2271,0.));
#393 = CARTESIAN_POINT('',(-5.87958,-0.738747,0.));
#394 = CARTESIAN_POINT('',(-5.9224,-0.311393,0.));
#395 = CARTESIAN_POINT('',(-5.94471,-7.71976E-02,0.));
#396 = CARTESIAN_POINT('',(-5.89781,0.634613,0.));
#397 = CARTESIAN_POINT('',(-5.82956,1.10727,0.));
#398 = CARTESIAN_POINT('',(-5.68111,1.67036,0.));
#399 = CARTESIAN_POINT('',(-5.51923,2.15187,0.));
#400 = SURFACE_OF_LINEAR_EXTRUSION('',#401,#436);
#401 = B_SPLINE_CURVE_WITH_KNOTS('',3,(#402,#403,#404,#405,#406,#407,
    #408,#409,#410,#411,#412,#413,#414,#415,#416,#417,#418,#419,#420,
    #421,#422,#423,#424,#425,#426,#427,#428,#429,#430,#431,#432,#433,
    #434,#435),.UNSPECIFIED.,.T.,.F.,(4,1,1,1,1,1,1,1,1,1,1,1,1,1,1,1,1,
    1,1,1,1,1,1,1,1,1,1,1,1,1,1,4),(0.,3.225806451613E-02,
    6.451612903226E-02,9.677419354839E-02,0.129032258065,0.161290322581,
    0.193548387097,0.225806451613,0.258064516129,0.290322580645,
    0.322580645161,0.354838709677,0.387096774194,0.41935483871,
    0.451612903226,0.483870967742,0.516129032258,0.548387096774,
    0.58064516129,0.612903225806,0.645161290323,0.677419354839,
    0.709677419355,0.741935483871,0.774193548387,0.806451612903,
    0.838709677419,0.870967741935,0.903225806452,0.935483870968,
    0.967741935484,1.),.QUASI_UNIFORM_KNOTS.);
#402 = CARTESIAN_POINT('',(-5.51923,2.15187,0.));
#403 = CARTESIAN_POINT('',(-6.67362,2.15187,0.));
#404 = CARTESIAN_POINT('',(-6.75839,2.07178,0.));
#405 = CARTESIAN_POINT('',(-6.87618,1.94456,0.));
#406 = CARTESIAN_POINT('',(-6.87618,1.81735,0.));
#407 = CARTESIAN_POINT('',(-6.87618,1.10983,0.));
#408 = CARTESIAN_POINT('',(-7.19447,1.1297,0.));
#409 = CARTESIAN_POINT('',(-10.2479,1.1297,0.));
#410 = CARTESIAN_POINT('',(-10.4587,0.901832,0.));
#411 = CARTESIAN_POINT('',(-10.6485,0.529279106511,0.));
#412 = CARTESIAN_POINT('',(-10.6203,3.72733E-02,0.));
#413 = CARTESIAN_POINT('',(-10.3841,-0.435134,0.));
#414 = CARTESIAN_POINT('',(-10.051,-0.658591,0.));
#415 = CARTESIAN_POINT('',(-9.90339,-0.756996,0.));
#416 = CARTESIAN_POINT('',(-6.86748,-0.756996,0.));
#417 = CARTESIAN_POINT('',(-6.82354,-0.843653,0.));
#418 = CARTESIAN_POINT('',(-6.833882290342,-1.03759,0.));
#419 = CARTESIAN_POINT('',(-6.83388,-1.90128,0.));
#420 = CARTESIAN_POINT('',(-6.74829,-2.01102,0.));
#421 = CARTESIAN_POINT('',(-6.56282,-2.11155,0.));
#422 = CARTESIAN_POINT('',(-6.43976,-2.12888,0.));
#423 = CARTESIAN_POINT('',(-5.76893,-2.12888,0.));
#424 = CARTESIAN_POINT('',(-5.5523,-2.11155,0.));
#425 = CARTESIAN_POINT('',(-5.55531,-2.09252,0.));
#426 = CARTESIAN_POINT('',(-5.65088,-1.77575,0.));
#427 = CARTESIAN_POINT('',(-5.73337,-1.47134,0.));
#428 = CARTESIAN_POINT('',(-5.81368,-1.2271,0.));
#429 = CARTESIAN_POINT('',(-5.87958,-0.738747,0.));
#430 = CARTESIAN_POINT('',(-5.9224,-0.311393,0.));
#431 = CARTESIAN_POINT('',(-5.94471,-7.71976E-02,0.));
#432 = CARTESIAN_POINT('',(-5.89781,0.634613,0.));
#433 = CARTESIAN_POINT('',(-5.82956,1.10727,0.));
#434 = CARTESIAN_POINT('',(-5.68111,1.67036,0.));
#435 = CARTESIAN_POINT('',(-5.51923,2.15187,0.));
#436 = VECTOR('',#437,1.);
#437 = DIRECTION('',(-0.,-0.,-1.));
#438 = ADVANCED_FACE('',(#439),#442,.F.);
#439 = FACE_BOUND('',#440,.F.);
#440 = EDGE_LOOP('',(#441));
#441 = ORIENTED_EDGE('',*,*,#364,.T.);
#442 = PLANE('',#443);
#443 = AXIS2_PLACEMENT_3D('',#444,#445,#446);
#444 = CARTESIAN_POINT('',(-7.534104203165,9.528270133126E-02,0.));
#445 = DIRECTION('',(0.,0.,1.));
#446 = DIRECTION('',(1.,0.,0.));
#447 = ADVANCED_FACE('',(#448),#451,.T.);
#448 = FACE_BOUND('',#449,.T.);
#449 = EDGE_LOOP('',(#450));
#450 = ORIENTED_EDGE('',*,*,#326,.T.);
#451 = PLANE('',#452);
#452 = AXIS2_PLACEMENT_3D('',#453,#454,#455);
#453 = CARTESIAN_POINT('',(-7.534104203165,9.528270133126E-02,0.25));
#454 = DIRECTION('',(0.,0.,1.));
#455 = DIRECTION('',(1.,0.,0.));
#456 = ( GEOMETRIC_REPRESENTATION_CONTEXT(3) 
GLOBAL_UNCERTAINTY_ASSIGNED_CONTEXT((#460)) GLOBAL_UNIT_ASSIGNED_CONTEXT
((#457,#458,#459)) REPRESENTATION_CONTEXT('Context #1',
  '3D Context with UNIT and UNCERTAINTY') );
#457 = ( LENGTH_UNIT() NAMED_UNIT(*) SI_UNIT(.MILLI.,.METRE.) );
#458 = ( NAMED_UNIT(*) PLANE_ANGLE_UNIT() SI_UNIT($,.RADIAN.) );
#459 = ( NAMED_UNIT(*) SI_UNIT($,.STERADIAN.) SOLID_ANGLE_UNIT() );
#460 = UNCERTAINTY_MEASURE_WITH_UNIT(LENGTH_MEASURE(1.E-07),#457,
  'distance_accuracy_value','confusion accuracy');
#461 = CONTEXT_DEPENDENT_SHAPE_REPRESENTATION(#462,#464);
#462 = ( REPRESENTATION_RELATIONSHIP('','',#309,#10) 
REPRESENTATION_RELATIONSHIP_WITH_TRANSFORMATION(#463) 
SHAPE_REPRESENTATION_RELATIONSHIP() );
#463 = ITEM_DEFINED_TRANSFORMATION('','',#11,#19);
#464 = PRODUCT_DEFINITION_SHAPE('Placement','Placement of an item',#465
  );
#465 = NEXT_ASSEMBLY_USAGE_OCCURRENCE('2','lftleg','',#5,#304,$);
#466 = PRODUCT_RELATED_PRODUCT_CATEGORY('part',$,(#306));
#467 = SHAPE_DEFINITION_REPRESENTATION(#468,#474);
#468 = PRODUCT_DEFINITION_SHAPE('','',#469);
#469 = PRODUCT_DEFINITION('design','',#470,#473);
#470 = PRODUCT_DEFINITION_FORMATION('','',#471);
#471 = PRODUCT('rghtleg','rghtleg','',(#472));
#472 = PRODUCT_CONTEXT('',#2,'mechanical');
#473 = PRODUCT_DEFINITION_CONTEXT('part definition',#2,'design');
#474 = ADVANCED_BREP_SHAPE_REPRESENTATION('',(#11,#475),#627);
#475 = MANIFOLD_SOLID_BREP('',#476);
#476 = CLOSED_SHELL('',(#477,#609,#618));
#477 = ADVANCED_FACE('',(#478),#569,.T.);
#478 = FACE_BOUND('',#479,.T.);
#479 = EDGE_LOOP('',(#480,#490,#529,#530));
#480 = ORIENTED_EDGE('',*,*,#481,.T.);
#481 = EDGE_CURVE('',#482,#484,#486,.T.);
#482 = VERTEX_POINT('',#483);
#483 = CARTESIAN_POINT('',(5.74608,2.09899,0.));
#484 = VERTEX_POINT('',#485);
#485 = CARTESIAN_POINT('',(5.74608,2.09899,0.25));
#486 = LINE('',#487,#488);
#487 = CARTESIAN_POINT('',(5.74608,2.09899,0.));
#488 = VECTOR('',#489,1.);
#489 = DIRECTION('',(0.,0.,1.));
#490 = ORIENTED_EDGE('',*,*,#491,.T.);
#491 = EDGE_CURVE('',#484,#484,#492,.T.);
#492 = B_SPLINE_CURVE_WITH_KNOTS('',3,(#493,#494,#495,#496,#497,#498,
    #499,#500,#501,#502,#503,#504,#505,#506,#507,#508,#509,#510,#511,
    #512,#513,#514,#515,#516,#517,#518,#519,#520,#521,#522,#523,#524,
    #525,#526,#527,#528),.UNSPECIFIED.,.T.,.F.,(4,1,1,1,1,1,1,1,1,1,1,1,
    1,1,1,1,1,1,1,1,1,1,1,1,1,1,1,1,1,1,1,1,1,4),(0.,3.030303030303E-02,
    6.060606060606E-02,9.090909090909E-02,0.121212121212,0.151515151515,
    0.181818181818,0.212121212121,0.242424242424,0.272727272727,
    0.30303030303,0.333333333333,0.363636363636,0.393939393939,
    0.424242424242,0.454545454545,0.484848484848,0.515151515152,
    0.545454545455,0.575757575758,0.606060606061,0.636363636364,
    0.666666666667,0.69696969697,0.727272727273,0.757575757576,
    0.787878787879,0.818181818182,0.848484848485,0.878787878788,
    0.909090909091,0.939393939394,0.969696969697,1.),
  .QUASI_UNIFORM_KNOTS.);
#493 = CARTESIAN_POINT('',(5.74608,2.09899,0.25));
#494 = CARTESIAN_POINT('',(6.77007,2.09899,0.25));
#495 = CARTESIAN_POINT('',(6.834700319045,2.04986,0.25));
#496 = CARTESIAN_POINT('',(7.02088,1.98522,0.25));
#497 = CARTESIAN_POINT('',(7.02864,1.90247,0.25));
#498 = CARTESIAN_POINT('',(7.028640892453,1.22668,0.25));
#499 = CARTESIAN_POINT('',(7.07966,1.18837,0.25));
#500 = CARTESIAN_POINT('',(7.13238,1.11058,0.25));
#501 = CARTESIAN_POINT('',(9.82424,1.11058,0.25));
#502 = CARTESIAN_POINT('',(10.236,0.927252,0.25));
#503 = CARTESIAN_POINT('',(10.4312,0.771891,0.25));
#504 = CARTESIAN_POINT('',(10.6304,0.485072,0.25));
#505 = CARTESIAN_POINT('',(10.6862,0.230121,0.25));
#506 = CARTESIAN_POINT('',(10.6941,-0.138363,0.25));
#507 = CARTESIAN_POINT('',(10.6056,-0.379768,0.25));
#508 = CARTESIAN_POINT('',(10.3709,-0.688796,0.25));
#509 = CARTESIAN_POINT('',(9.97569,-0.944338,0.25));
#510 = CARTESIAN_POINT('',(9.67855,-0.935424,0.25));
#511 = CARTESIAN_POINT('',(6.97814,-0.935424,0.25));
#512 = CARTESIAN_POINT('',(6.91579,-0.973116945236,0.25));
#513 = CARTESIAN_POINT('',(6.90324,-1.15531,0.25));
#514 = CARTESIAN_POINT('',(6.89136,-1.33954,0.25));
#515 = CARTESIAN_POINT('',(6.855701520035,-1.97131,0.25));
#516 = CARTESIAN_POINT('',(6.89711,-1.96644,0.25));
#517 = CARTESIAN_POINT('',(6.80561,-2.07166,0.25));
#518 = CARTESIAN_POINT('',(6.61804,-2.18146,0.25));
#519 = CARTESIAN_POINT('',(6.0988,-2.18146,0.25));
#520 = CARTESIAN_POINT('',(5.86319,-2.14486,0.25));
#521 = CARTESIAN_POINT('',(5.78771,-2.09225,0.25));
#522 = CARTESIAN_POINT('',(5.91263,-1.63872,0.25));
#523 = CARTESIAN_POINT('',(6.1006,-0.832082,0.25));
#524 = CARTESIAN_POINT('',(6.16252,-0.133222,0.25));
#525 = CARTESIAN_POINT('',(6.11652,0.552795,0.25));
#526 = CARTESIAN_POINT('',(6.03279,1.13568,0.25));
#527 = CARTESIAN_POINT('',(5.89455,1.7091,0.25));
#528 = CARTESIAN_POINT('',(5.74608,2.09899,0.25));
#529 = ORIENTED_EDGE('',*,*,#481,.F.);
#530 = ORIENTED_EDGE('',*,*,#531,.F.);
#531 = EDGE_CURVE('',#482,#482,#532,.T.);
#532 = B_SPLINE_CURVE_WITH_KNOTS('',3,(#533,#534,#535,#536,#537,#538,
    #539,#540,#541,#542,#543,#544,#545,#546,#547,#548,#549,#550,#551,
    #552,#553,#554,#555,#556,#557,#558,#559,#560,#561,#562,#563,#564,
    #565,#566,#567,#568),.UNSPECIFIED.,.T.,.F.,(4,1,1,1,1,1,1,1,1,1,1,1,
    1,1,1,1,1,1,1,1,1,1,1,1,1,1,1,1,1,1,1,1,1,4),(0.,3.030303030303E-02,
    6.060606060606E-02,9.090909090909E-02,0.121212121212,0.151515151515,
    0.181818181818,0.212121212121,0.242424242424,0.272727272727,
    0.30303030303,0.333333333333,0.363636363636,0.393939393939,
    0.424242424242,0.454545454545,0.484848484848,0.515151515152,
    0.545454545455,0.575757575758,0.606060606061,0.636363636364,
    0.666666666667,0.69696969697,0.727272727273,0.757575757576,
    0.787878787879,0.818181818182,0.848484848485,0.878787878788,
    0.909090909091,0.939393939394,0.969696969697,1.),
  .QUASI_UNIFORM_KNOTS.);
#533 = CARTESIAN_POINT('',(5.74608,2.09899,0.));
#534 = CARTESIAN_POINT('',(6.77007,2.09899,0.));
#535 = CARTESIAN_POINT('',(6.834700319045,2.04986,0.));
#536 = CARTESIAN_POINT('',(7.02088,1.98522,0.));
#537 = CARTESIAN_POINT('',(7.02864,1.90247,0.));
#538 = CARTESIAN_POINT('',(7.028640892453,1.22668,0.));
#539 = CARTESIAN_POINT('',(7.07966,1.18837,0.));
#540 = CARTESIAN_POINT('',(7.13238,1.11058,0.));
#541 = CARTESIAN_POINT('',(9.82424,1.11058,0.));
#542 = CARTESIAN_POINT('',(10.236,0.927252,0.));
#543 = CARTESIAN_POINT('',(10.4312,0.771891,0.));
#544 = CARTESIAN_POINT('',(10.6304,0.485072,0.));
#545 = CARTESIAN_POINT('',(10.6862,0.230121,0.));
#546 = CARTESIAN_POINT('',(10.6941,-0.138363,0.));
#547 = CARTESIAN_POINT('',(10.6056,-0.379768,0.));
#548 = CARTESIAN_POINT('',(10.3709,-0.688796,0.));
#549 = CARTESIAN_POINT('',(9.97569,-0.944338,0.));
#550 = CARTESIAN_POINT('',(9.67855,-0.935424,0.));
#551 = CARTESIAN_POINT('',(6.97814,-0.935424,0.));
#552 = CARTESIAN_POINT('',(6.91579,-0.973116945236,0.));
#553 = CARTESIAN_POINT('',(6.90324,-1.15531,0.));
#554 = CARTESIAN_POINT('',(6.89136,-1.33954,0.));
#555 = CARTESIAN_POINT('',(6.855701520035,-1.97131,0.));
#556 = CARTESIAN_POINT('',(6.89711,-1.96644,0.));
#557 = CARTESIAN_POINT('',(6.80561,-2.07166,0.));
#558 = CARTESIAN_POINT('',(6.61804,-2.18146,0.));
#559 = CARTESIAN_POINT('',(6.0988,-2.18146,0.));
#560 = CARTESIAN_POINT('',(5.86319,-2.14486,0.));
#561 = CARTESIAN_POINT('',(5.78771,-2.09225,0.));
#562 = CARTESIAN_POINT('',(5.91263,-1.63872,0.));
#563 = CARTESIAN_POINT('',(6.1006,-0.832082,0.));
#564 = CARTESIAN_POINT('',(6.16252,-0.133222,0.));
#565 = CARTESIAN_POINT('',(6.11652,0.552795,0.));
#566 = CARTESIAN_POINT('',(6.03279,1.13568,0.));
#567 = CARTESIAN_POINT('',(5.89455,1.7091,0.));
#568 = CARTESIAN_POINT('',(5.74608,2.09899,0.));
#569 = SURFACE_OF_LINEAR_EXTRUSION('',#570,#607);
#570 = B_SPLINE_CURVE_WITH_KNOTS('',3,(#571,#572,#573,#574,#575,#576,
    #577,#578,#579,#580,#581,#582,#583,#584,#585,#586,#587,#588,#589,
    #590,#591,#592,#593,#594,#595,#596,#597,#598,#599,#600,#601,#602,
    #603,#604,#605,#606),.UNSPECIFIED.,.T.,.F.,(4,1,1,1,1,1,1,1,1,1,1,1,
    1,1,1,1,1,1,1,1,1,1,1,1,1,1,1,1,1,1,1,1,1,4),(0.,3.030303030303E-02,
    6.060606060606E-02,9.090909090909E-02,0.121212121212,0.151515151515,
    0.181818181818,0.212121212121,0.242424242424,0.272727272727,
    0.30303030303,0.333333333333,0.363636363636,0.393939393939,
    0.424242424242,0.454545454545,0.484848484848,0.515151515152,
    0.545454545455,0.575757575758,0.606060606061,0.636363636364,
    0.666666666667,0.69696969697,0.727272727273,0.757575757576,
    0.787878787879,0.818181818182,0.848484848485,0.878787878788,
    0.909090909091,0.939393939394,0.969696969697,1.),
  .QUASI_UNIFORM_KNOTS.);
#571 = CARTESIAN_POINT('',(5.74608,2.09899,0.));
#572 = CARTESIAN_POINT('',(6.77007,2.09899,0.));
#573 = CARTESIAN_POINT('',(6.834700319045,2.04986,0.));
#574 = CARTESIAN_POINT('',(7.02088,1.98522,0.));
#575 = CARTESIAN_POINT('',(7.02864,1.90247,0.));
#576 = CARTESIAN_POINT('',(7.028640892453,1.22668,0.));
#577 = CARTESIAN_POINT('',(7.07966,1.18837,0.));
#578 = CARTESIAN_POINT('',(7.13238,1.11058,0.));
#579 = CARTESIAN_POINT('',(9.82424,1.11058,0.));
#580 = CARTESIAN_POINT('',(10.236,0.927252,0.));
#581 = CARTESIAN_POINT('',(10.4312,0.771891,0.));
#582 = CARTESIAN_POINT('',(10.6304,0.485072,0.));
#583 = CARTESIAN_POINT('',(10.6862,0.230121,0.));
#584 = CARTESIAN_POINT('',(10.6941,-0.138363,0.));
#585 = CARTESIAN_POINT('',(10.6056,-0.379768,0.));
#586 = CARTESIAN_POINT('',(10.3709,-0.688796,0.));
#587 = CARTESIAN_POINT('',(9.97569,-0.944338,0.));
#588 = CARTESIAN_POINT('',(9.67855,-0.935424,0.));
#589 = CARTESIAN_POINT('',(6.97814,-0.935424,0.));
#590 = CARTESIAN_POINT('',(6.91579,-0.973116945236,0.));
#591 = CARTESIAN_POINT('',(6.90324,-1.15531,0.));
#592 = CARTESIAN_POINT('',(6.89136,-1.33954,0.));
#593 = CARTESIAN_POINT('',(6.855701520035,-1.97131,0.));
#594 = CARTESIAN_POINT('',(6.89711,-1.96644,0.));
#595 = CARTESIAN_POINT('',(6.80561,-2.07166,0.));
#596 = CARTESIAN_POINT('',(6.61804,-2.18146,0.));
#597 = CARTESIAN_POINT('',(6.0988,-2.18146,0.));
#598 = CARTESIAN_POINT('',(5.86319,-2.14486,0.));
#599 = CARTESIAN_POINT('',(5.78771,-2.09225,0.));
#600 = CARTESIAN_POINT('',(5.91263,-1.63872,0.));
#601 = CARTESIAN_POINT('',(6.1006,-0.832082,0.));
#602 = CARTESIAN_POINT('',(6.16252,-0.133222,0.));
#603 = CARTESIAN_POINT('',(6.11652,0.552795,0.));
#604 = CARTESIAN_POINT('',(6.03279,1.13568,0.));
#605 = CARTESIAN_POINT('',(5.89455,1.7091,0.));
#606 = CARTESIAN_POINT('',(5.74608,2.09899,0.));
#607 = VECTOR('',#608,1.);
#608 = DIRECTION('',(-0.,-0.,-1.));
#609 = ADVANCED_FACE('',(#610),#613,.F.);
#610 = FACE_BOUND('',#611,.T.);
#611 = EDGE_LOOP('',(#612));
#612 = ORIENTED_EDGE('',*,*,#531,.T.);
#613 = PLANE('',#614);
#614 = AXIS2_PLACEMENT_3D('',#615,#616,#617);
#615 = CARTESIAN_POINT('',(7.698453794436,3.335401825998E-02,0.));
#616 = DIRECTION('',(0.,0.,1.));
#617 = DIRECTION('',(1.,0.,0.));
#618 = ADVANCED_FACE('',(#619),#622,.T.);
#619 = FACE_BOUND('',#620,.F.);
#620 = EDGE_LOOP('',(#621));
#621 = ORIENTED_EDGE('',*,*,#491,.T.);
#622 = PLANE('',#623);
#623 = AXIS2_PLACEMENT_3D('',#624,#625,#626);
#624 = CARTESIAN_POINT('',(7.698453794436,3.335401825998E-02,0.25));
#625 = DIRECTION('',(0.,0.,1.));
#626 = DIRECTION('',(1.,0.,0.));
#627 = ( GEOMETRIC_REPRESENTATION_CONTEXT(3) 
GLOBAL_UNCERTAINTY_ASSIGNED_CONTEXT((#631)) GLOBAL_UNIT_ASSIGNED_CONTEXT
((#628,#629,#630)) REPRESENTATION_CONTEXT('Context #1',
  '3D Context with UNIT and UNCERTAINTY') );
#628 = ( LENGTH_UNIT() NAMED_UNIT(*) SI_UNIT(.MILLI.,.METRE.) );
#629 = ( NAMED_UNIT(*) PLANE_ANGLE_UNIT() SI_UNIT($,.RADIAN.) );
#630 = ( NAMED_UNIT(*) SI_UNIT($,.STERADIAN.) SOLID_ANGLE_UNIT() );
#631 = UNCERTAINTY_MEASURE_WITH_UNIT(LENGTH_MEASURE(1.E-07),#628,
  'distance_accuracy_value','confusion accuracy');
#632 = CONTEXT_DEPENDENT_SHAPE_REPRESENTATION(#633,#635);
#633 = ( REPRESENTATION_RELATIONSHIP('','',#474,#10) 
REPRESENTATION_RELATIONSHIP_WITH_TRANSFORMATION(#634) 
SHAPE_REPRESENTATION_RELATIONSHIP() );
#634 = ITEM_DEFINED_TRANSFORMATION('','',#11,#23);
#635 = PRODUCT_DEFINITION_SHAPE('Placement','Placement of an item',#636
  );
#636 = NEXT_ASSEMBLY_USAGE_OCCURRENCE('3','rghtleg','',#5,#469,$);
#637 = PRODUCT_RELATED_PRODUCT_CATEGORY('part',$,(#471));
#638 = MECHANICAL_DESIGN_GEOMETRIC_PRESENTATION_REPRESENTATION('',(#639)
  ,#456);
#639 = STYLED_ITEM('color',(#640),#310);
#640 = PRESENTATION_STYLE_ASSIGNMENT((#641,#647));
#641 = SURFACE_STYLE_USAGE(.BOTH.,#642);
#642 = SURFACE_SIDE_STYLE('',(#643));
#643 = SURFACE_STYLE_FILL_AREA(#644);
#644 = FILL_AREA_STYLE('',(#645));
#645 = FILL_AREA_STYLE_COLOUR('',#646);
#646 = COLOUR_RGB('',0.917647049334,0.917647049334,0.917647049334);
#647 = CURVE_STYLE('',#648,POSITIVE_LENGTH_MEASURE(0.1),#649);
#648 = DRAUGHTING_PRE_DEFINED_CURVE_FONT('continuous');
#649 = COLOUR_RGB('',9.803921802644E-02,9.803921802644E-02,
  9.803921802644E-02);
#650 = MECHANICAL_DESIGN_GEOMETRIC_PRESENTATION_REPRESENTATION('',(#651)
  ,#291);
#651 = STYLED_ITEM('color',(#652),#41);
#652 = PRESENTATION_STYLE_ASSIGNMENT((#653,#661));
#653 = SURFACE_STYLE_USAGE(.BOTH.,#654);
#654 = SURFACE_SIDE_STYLE('',(#655,#659));
#655 = SURFACE_STYLE_FILL_AREA(#656);
#656 = FILL_AREA_STYLE('',(#657));
#657 = FILL_AREA_STYLE_COLOUR('',#658);
#658 = COLOUR_RGB('',0.184313727102,0.168627456984,0.223529416636);
#659 = SURFACE_STYLE_RENDERING_WITH_PROPERTIES(.NORMAL_SHADING.,#658,(
    #660));
#660 = SURFACE_STYLE_TRANSPARENT(0.699999988079);
#661 = CURVE_STYLE('',#662,POSITIVE_LENGTH_MEASURE(0.1),#649);
#662 = DRAUGHTING_PRE_DEFINED_CURVE_FONT('continuous');
#663 = MECHANICAL_DESIGN_GEOMETRIC_PRESENTATION_REPRESENTATION('',(#664)
  ,#627);
#664 = STYLED_ITEM('color',(#665),#475);
#665 = PRESENTATION_STYLE_ASSIGNMENT((#666,#672));
#666 = SURFACE_STYLE_USAGE(.BOTH.,#667);
#667 = SURFACE_SIDE_STYLE('',(#668));
#668 = SURFACE_STYLE_FILL_AREA(#669);
#669 = FILL_AREA_STYLE('',(#670));
#670 = FILL_AREA_STYLE_COLOUR('',#671);
#671 = COLOUR_RGB('',0.301960791261,0.301960791261,0.301960791261);
#672 = CURVE_STYLE('',#673,POSITIVE_LENGTH_MEASURE(0.1),#649);
#673 = DRAUGHTING_PRE_DEFINED_CURVE_FONT('continuous');
ENDSEC;
END-ISO-10303-21;
