ISO-10303-21;
HEADER;
FILE_DESCRIPTION(('FreeCAD Model'),'2;1');
FILE_NAME('Open CASCADE Shape Model','2025-09-17T18:45:45',(''),(''),
  'Open CASCADE STEP processor 7.8','FreeCAD','Unknown');
FILE_SCHEMA(('AUTOMOTIVE_DESIGN { 1 0 10303 214 1 1 1 1 }'));
ENDSEC;
DATA;
#1 = APPLICATION_PROTOCOL_DEFINITION('international standard',
  'automotive_design',2000,#2);
#2 = APPLICATION_CONTEXT(
  'core data for automotive mechanical design processes');
#3 = SHAPE_DEFINITION_REPRESENTATION(#4,#10);
#4 = PRODUCT_DEFINITION_SHAPE('','',#5);
#5 = PRODUCT_DEFINITION('design','',#6,#9);
#6 = PRODUCT_DEFINITION_FORMATION('','',#7);
#7 = PRODUCT('tft-1.69-st7789v3','tft-1.69-st7789v3','',(#8));
#8 = PRODUCT_CONTEXT('',#2,'mechanical');
#9 = PRODUCT_DEFINITION_CONTEXT('part definition',#2,'design');
#10 = SHAPE_REPRESENTATION('',(#11,#15),#19);
#11 = AXIS2_PLACEMENT_3D('',#12,#13,#14);
#12 = CARTESIAN_POINT('',(0.,0.,0.));
#13 = DIRECTION('',(0.,0.,1.));
#14 = DIRECTION('',(1.,0.,-0.));
#15 = AXIS2_PLACEMENT_3D('',#16,#17,#18);
#16 = CARTESIAN_POINT('',(0.,0.,0.));
#17 = DIRECTION('',(0.,0.,1.));
#18 = DIRECTION('',(1.,0.,0.));
#19 = ( GEOMETRIC_REPRESENTATION_CONTEXT(3) 
GLOBAL_UNCERTAINTY_ASSIGNED_CONTEXT((#23)) GLOBAL_UNIT_ASSIGNED_CONTEXT(
(#20,#21,#22)) REPRESENTATION_CONTEXT('Context #1',
  '3D Context with UNIT and UNCERTAINTY') );
#20 = ( LENGTH_UNIT() NAMED_UNIT(*) SI_UNIT(.MILLI.,.METRE.) );
#21 = ( NAMED_UNIT(*) PLANE_ANGLE_UNIT() SI_UNIT($,.RADIAN.) );
#22 = ( NAMED_UNIT(*) SI_UNIT($,.STERADIAN.) SOLID_ANGLE_UNIT() );
#23 = UNCERTAINTY_MEASURE_WITH_UNIT(LENGTH_MEASURE(1.E-07),#20,
  'distance_accuracy_value','confusion accuracy');
#24 = PRODUCT_RELATED_PRODUCT_CATEGORY('part',$,(#7));
#25 = SHAPE_DEFINITION_REPRESENTATION(#26,#32);
#26 = PRODUCT_DEFINITION_SHAPE('','',#27);
#27 = PRODUCT_DEFINITION('design','',#28,#31);
#28 = PRODUCT_DEFINITION_FORMATION('','',#29);
#29 = PRODUCT('Body','Body','',(#30));
#30 = PRODUCT_CONTEXT('',#2,'mechanical');
#31 = PRODUCT_DEFINITION_CONTEXT('part definition',#2,'design');
#32 = ADVANCED_BREP_SHAPE_REPRESENTATION('',(#11,#33),#1031);
#33 = MANIFOLD_SOLID_BREP('',#34);
#34 = CLOSED_SHELL('',(#35,#75,#106,#137,#370,#632,#658,#675,#692,#709,
    #726,#743,#755,#772,#784,#801,#813,#830,#842,#859,#871,#888,#900,
    #917,#929,#946,#958,#1022));
#35 = ADVANCED_FACE('',(#36),#70,.F.);
#36 = FACE_BOUND('',#37,.F.);
#37 = EDGE_LOOP('',(#38,#48,#56,#64));
#38 = ORIENTED_EDGE('',*,*,#39,.T.);
#39 = EDGE_CURVE('',#40,#42,#44,.T.);
#40 = VERTEX_POINT('',#41);
#41 = CARTESIAN_POINT('',(-24.,15.5,0.));
#42 = VERTEX_POINT('',#43);
#43 = CARTESIAN_POINT('',(-24.,15.5,1.2));
#44 = LINE('',#45,#46);
#45 = CARTESIAN_POINT('',(-24.,15.5,0.));
#46 = VECTOR('',#47,1.);
#47 = DIRECTION('',(0.,0.,1.));
#48 = ORIENTED_EDGE('',*,*,#49,.T.);
#49 = EDGE_CURVE('',#42,#50,#52,.T.);
#50 = VERTEX_POINT('',#51);
#51 = CARTESIAN_POINT('',(-24.,-15.5,1.2));
#52 = LINE('',#53,#54);
#53 = CARTESIAN_POINT('',(-24.,15.5,1.2));
#54 = VECTOR('',#55,1.);
#55 = DIRECTION('',(0.,-1.,0.));
#56 = ORIENTED_EDGE('',*,*,#57,.F.);
#57 = EDGE_CURVE('',#58,#50,#60,.T.);
#58 = VERTEX_POINT('',#59);
#59 = CARTESIAN_POINT('',(-24.,-15.5,0.));
#60 = LINE('',#61,#62);
#61 = CARTESIAN_POINT('',(-24.,-15.5,0.));
#62 = VECTOR('',#63,1.);
#63 = DIRECTION('',(0.,0.,1.));
#64 = ORIENTED_EDGE('',*,*,#65,.F.);
#65 = EDGE_CURVE('',#40,#58,#66,.T.);
#66 = LINE('',#67,#68);
#67 = CARTESIAN_POINT('',(-24.,15.5,0.));
#68 = VECTOR('',#69,1.);
#69 = DIRECTION('',(0.,-1.,0.));
#70 = PLANE('',#71);
#71 = AXIS2_PLACEMENT_3D('',#72,#73,#74);
#72 = CARTESIAN_POINT('',(-24.,15.5,0.));
#73 = DIRECTION('',(1.,0.,0.));
#74 = DIRECTION('',(0.,-1.,0.));
#75 = ADVANCED_FACE('',(#76),#101,.F.);
#76 = FACE_BOUND('',#77,.F.);
#77 = EDGE_LOOP('',(#78,#88,#94,#95));
#78 = ORIENTED_EDGE('',*,*,#79,.T.);
#79 = EDGE_CURVE('',#80,#82,#84,.T.);
#80 = VERTEX_POINT('',#81);
#81 = CARTESIAN_POINT('',(24.,15.5,0.));
#82 = VERTEX_POINT('',#83);
#83 = CARTESIAN_POINT('',(24.,15.5,1.2));
#84 = LINE('',#85,#86);
#85 = CARTESIAN_POINT('',(24.,15.5,0.));
#86 = VECTOR('',#87,1.);
#87 = DIRECTION('',(0.,0.,1.));
#88 = ORIENTED_EDGE('',*,*,#89,.T.);
#89 = EDGE_CURVE('',#82,#42,#90,.T.);
#90 = LINE('',#91,#92);
#91 = CARTESIAN_POINT('',(24.,15.5,1.2));
#92 = VECTOR('',#93,1.);
#93 = DIRECTION('',(-1.,0.,0.));
#94 = ORIENTED_EDGE('',*,*,#39,.F.);
#95 = ORIENTED_EDGE('',*,*,#96,.F.);
#96 = EDGE_CURVE('',#80,#40,#97,.T.);
#97 = LINE('',#98,#99);
#98 = CARTESIAN_POINT('',(24.,15.5,0.));
#99 = VECTOR('',#100,1.);
#100 = DIRECTION('',(-1.,0.,0.));
#101 = PLANE('',#102);
#102 = AXIS2_PLACEMENT_3D('',#103,#104,#105);
#103 = CARTESIAN_POINT('',(24.,15.5,0.));
#104 = DIRECTION('',(0.,-1.,0.));
#105 = DIRECTION('',(-1.,0.,0.));
#106 = ADVANCED_FACE('',(#107),#132,.F.);
#107 = FACE_BOUND('',#108,.F.);
#108 = EDGE_LOOP('',(#109,#110,#118,#126));
#109 = ORIENTED_EDGE('',*,*,#57,.T.);
#110 = ORIENTED_EDGE('',*,*,#111,.T.);
#111 = EDGE_CURVE('',#50,#112,#114,.T.);
#112 = VERTEX_POINT('',#113);
#113 = CARTESIAN_POINT('',(23.998772979379,-15.50005226404,1.2));
#114 = LINE('',#115,#116);
#115 = CARTESIAN_POINT('',(-24.,-15.5,1.2));
#116 = VECTOR('',#117,1.);
#117 = DIRECTION('',(0.999999999999,-1.08886204078E-06,0.));
#118 = ORIENTED_EDGE('',*,*,#119,.F.);
#119 = EDGE_CURVE('',#120,#112,#122,.T.);
#120 = VERTEX_POINT('',#121);
#121 = CARTESIAN_POINT('',(23.998772979379,-15.50005226404,0.));
#122 = LINE('',#123,#124);
#123 = CARTESIAN_POINT('',(23.998772979379,-15.50005226404,0.));
#124 = VECTOR('',#125,1.);
#125 = DIRECTION('',(0.,0.,1.));
#126 = ORIENTED_EDGE('',*,*,#127,.F.);
#127 = EDGE_CURVE('',#58,#120,#128,.T.);
#128 = LINE('',#129,#130);
#129 = CARTESIAN_POINT('',(-24.,-15.5,0.));
#130 = VECTOR('',#131,1.);
#131 = DIRECTION('',(0.999999999999,-1.08886204078E-06,0.));
#132 = PLANE('',#133);
#133 = AXIS2_PLACEMENT_3D('',#134,#135,#136);
#134 = CARTESIAN_POINT('',(-24.,-15.5,0.));
#135 = DIRECTION('',(1.08886204078E-06,0.999999999999,0.));
#136 = DIRECTION('',(0.999999999999,-1.08886204078E-06,0.));
#137 = ADVANCED_FACE('',(#138,#161,#172,#183,#194,#205,#216,#225,#236,
    #245,#256,#265,#276,#285,#296,#305,#316,#325,#336,#345,#356),#365,
  .F.);
#138 = FACE_BOUND('',#139,.F.);
#139 = EDGE_LOOP('',(#140,#141,#142,#160));
#140 = ORIENTED_EDGE('',*,*,#65,.T.);
#141 = ORIENTED_EDGE('',*,*,#127,.T.);
#142 = ORIENTED_EDGE('',*,*,#143,.F.);
#143 = EDGE_CURVE('',#80,#120,#144,.T.);
#144 = B_SPLINE_CURVE_WITH_KNOTS('',3,(#145,#146,#147,#148,#149,#150,
    #151,#152,#153,#154,#155,#156,#157,#158,#159),.UNSPECIFIED.,.F.,.F.,
  (4,1,1,1,1,1,1,1,1,1,1,1,4),(0.,8.333333333333E-02,0.166666666667,0.25
    ,0.333333333333,0.416666666667,0.5,0.583333333333,0.666666666667,
    0.75,0.833333333333,0.916666666667,1.),.UNSPECIFIED.);
#145 = CARTESIAN_POINT('',(24.,15.5,0.));
#146 = CARTESIAN_POINT('',(24.160053287809,10.686899151353,0.));
#147 = CARTESIAN_POINT('',(23.277804689043,10.088867637739,0.));
#148 = CARTESIAN_POINT('',(22.297137444435,9.893184845053,0.));
#149 = CARTESIAN_POINT('',(21.237366818067,9.884257457928,0.));
#150 = CARTESIAN_POINT('',(21.568647280818,5.521583947578,0.));
#151 = CARTESIAN_POINT('',(21.374751715513,4.540561771603,0.));
#152 = CARTESIAN_POINT('',(21.234012999991,-10.28615999999,0.));
#153 = CARTESIAN_POINT('',(21.999654485308,-10.29274925407,0.));
#154 = CARTESIAN_POINT('',(23.432065938359,-10.31187257176,0.));
#155 = CARTESIAN_POINT('',(23.982601163171,-10.87559393369,0.));
#156 = CARTESIAN_POINT('',(23.998772979379,-15.50005226404,0.));
#157 = CARTESIAN_POINT('',(23.998772979379,-15.50005226404,0.));
#158 = CARTESIAN_POINT('',(23.998772979379,-15.50005226404,0.));
#159 = CARTESIAN_POINT('',(23.998772979379,-15.50005226404,0.));
#160 = ORIENTED_EDGE('',*,*,#96,.T.);
#161 = FACE_BOUND('',#162,.T.);
#162 = EDGE_LOOP('',(#163));
#163 = ORIENTED_EDGE('',*,*,#164,.T.);
#164 = EDGE_CURVE('',#165,#165,#167,.T.);
#165 = VERTEX_POINT('',#166);
#166 = CARTESIAN_POINT('',(22.75,13.,0.));
#167 = CIRCLE('',#168,1.25);
#168 = AXIS2_PLACEMENT_3D('',#169,#170,#171);
#169 = CARTESIAN_POINT('',(21.5,13.,0.));
#170 = DIRECTION('',(0.,0.,1.));
#171 = DIRECTION('',(1.,0.,0.));
#172 = FACE_BOUND('',#173,.T.);
#173 = EDGE_LOOP('',(#174));
#174 = ORIENTED_EDGE('',*,*,#175,.T.);
#175 = EDGE_CURVE('',#176,#176,#178,.T.);
#176 = VERTEX_POINT('',#177);
#177 = CARTESIAN_POINT('',(22.75,-13.,0.));
#178 = CIRCLE('',#179,1.25);
#179 = AXIS2_PLACEMENT_3D('',#180,#181,#182);
#180 = CARTESIAN_POINT('',(21.5,-13.,0.));
#181 = DIRECTION('',(0.,0.,1.));
#182 = DIRECTION('',(1.,0.,0.));
#183 = FACE_BOUND('',#184,.T.);
#184 = EDGE_LOOP('',(#185));
#185 = ORIENTED_EDGE('',*,*,#186,.T.);
#186 = EDGE_CURVE('',#187,#187,#189,.T.);
#187 = VERTEX_POINT('',#188);
#188 = CARTESIAN_POINT('',(-20.25,-13.,0.));
#189 = CIRCLE('',#190,1.25);
#190 = AXIS2_PLACEMENT_3D('',#191,#192,#193);
#191 = CARTESIAN_POINT('',(-21.5,-13.,0.));
#192 = DIRECTION('',(0.,0.,1.));
#193 = DIRECTION('',(1.,0.,0.));
#194 = FACE_BOUND('',#195,.T.);
#195 = EDGE_LOOP('',(#196));
#196 = ORIENTED_EDGE('',*,*,#197,.T.);
#197 = EDGE_CURVE('',#198,#198,#200,.T.);
#198 = VERTEX_POINT('',#199);
#199 = CARTESIAN_POINT('',(-20.25,13.,0.));
#200 = CIRCLE('',#201,1.25);
#201 = AXIS2_PLACEMENT_3D('',#202,#203,#204);
#202 = CARTESIAN_POINT('',(-21.5,13.,0.));
#203 = DIRECTION('',(0.,0.,1.));
#204 = DIRECTION('',(1.,0.,0.));
#205 = FACE_BOUND('',#206,.F.);
#206 = EDGE_LOOP('',(#207));
#207 = ORIENTED_EDGE('',*,*,#208,.F.);
#208 = EDGE_CURVE('',#209,#209,#211,.T.);
#209 = VERTEX_POINT('',#210);
#210 = CARTESIAN_POINT('',(-22.532983,-3.592039,0.));
#211 = CIRCLE('',#212,0.563222);
#212 = AXIS2_PLACEMENT_3D('',#213,#214,#215);
#213 = CARTESIAN_POINT('',(-23.096205,-3.592039,0.));
#214 = DIRECTION('',(0.,0.,1.));
#215 = DIRECTION('',(1.,0.,0.));
#216 = FACE_BOUND('',#217,.F.);
#217 = EDGE_LOOP('',(#218));
#218 = ORIENTED_EDGE('',*,*,#219,.F.);
#219 = EDGE_CURVE('',#209,#209,#220,.T.);
#220 = CIRCLE('',#221,0.563222);
#221 = AXIS2_PLACEMENT_3D('',#222,#223,#224);
#222 = CARTESIAN_POINT('',(-23.096205,-3.592039,0.));
#223 = DIRECTION('',(0.,0.,1.));
#224 = DIRECTION('',(1.,0.,0.));
#225 = FACE_BOUND('',#226,.F.);
#226 = EDGE_LOOP('',(#227));
#227 = ORIENTED_EDGE('',*,*,#228,.F.);
#228 = EDGE_CURVE('',#229,#229,#231,.T.);
#229 = VERTEX_POINT('',#230);
#230 = CARTESIAN_POINT('',(-22.532983,4.027961,0.));
#231 = CIRCLE('',#232,0.563222);
#232 = AXIS2_PLACEMENT_3D('',#233,#234,#235);
#233 = CARTESIAN_POINT('',(-23.096205,4.027961,0.));
#234 = DIRECTION('',(0.,0.,1.));
#235 = DIRECTION('',(1.,0.,0.));
#236 = FACE_BOUND('',#237,.F.);
#237 = EDGE_LOOP('',(#238));
#238 = ORIENTED_EDGE('',*,*,#239,.F.);
#239 = EDGE_CURVE('',#229,#229,#240,.T.);
#240 = CIRCLE('',#241,0.563222);
#241 = AXIS2_PLACEMENT_3D('',#242,#243,#244);
#242 = CARTESIAN_POINT('',(-23.096205,4.027961,0.));
#243 = DIRECTION('',(0.,0.,1.));
#244 = DIRECTION('',(1.,0.,0.));
#245 = FACE_BOUND('',#246,.F.);
#246 = EDGE_LOOP('',(#247));
#247 = ORIENTED_EDGE('',*,*,#248,.F.);
#248 = EDGE_CURVE('',#249,#249,#251,.T.);
#249 = VERTEX_POINT('',#250);
#250 = CARTESIAN_POINT('',(-22.532983,1.487961,0.));
#251 = CIRCLE('',#252,0.563222);
#252 = AXIS2_PLACEMENT_3D('',#253,#254,#255);
#253 = CARTESIAN_POINT('',(-23.096205,1.487961,0.));
#254 = DIRECTION('',(0.,0.,1.));
#255 = DIRECTION('',(1.,0.,0.));
#256 = FACE_BOUND('',#257,.F.);
#257 = EDGE_LOOP('',(#258));
#258 = ORIENTED_EDGE('',*,*,#259,.F.);
#259 = EDGE_CURVE('',#249,#249,#260,.T.);
#260 = CIRCLE('',#261,0.563222);
#261 = AXIS2_PLACEMENT_3D('',#262,#263,#264);
#262 = CARTESIAN_POINT('',(-23.096205,1.487961,0.));
#263 = DIRECTION('',(0.,0.,1.));
#264 = DIRECTION('',(1.,0.,0.));
#265 = FACE_BOUND('',#266,.F.);
#266 = EDGE_LOOP('',(#267));
#267 = ORIENTED_EDGE('',*,*,#268,.F.);
#268 = EDGE_CURVE('',#269,#269,#271,.T.);
#269 = VERTEX_POINT('',#270);
#270 = CARTESIAN_POINT('',(-22.532983,-1.052039,0.));
#271 = CIRCLE('',#272,0.563222);
#272 = AXIS2_PLACEMENT_3D('',#273,#274,#275);
#273 = CARTESIAN_POINT('',(-23.096205,-1.052039,0.));
#274 = DIRECTION('',(0.,0.,1.));
#275 = DIRECTION('',(1.,0.,0.));
#276 = FACE_BOUND('',#277,.F.);
#277 = EDGE_LOOP('',(#278));
#278 = ORIENTED_EDGE('',*,*,#279,.F.);
#279 = EDGE_CURVE('',#269,#269,#280,.T.);
#280 = CIRCLE('',#281,0.563222);
#281 = AXIS2_PLACEMENT_3D('',#282,#283,#284);
#282 = CARTESIAN_POINT('',(-23.096205,-1.052039,0.));
#283 = DIRECTION('',(0.,0.,1.));
#284 = DIRECTION('',(1.,0.,0.));
#285 = FACE_BOUND('',#286,.F.);
#286 = EDGE_LOOP('',(#287));
#287 = ORIENTED_EDGE('',*,*,#288,.F.);
#288 = EDGE_CURVE('',#289,#289,#291,.T.);
#289 = VERTEX_POINT('',#290);
#290 = CARTESIAN_POINT('',(-22.532983,9.107961,0.));
#291 = CIRCLE('',#292,0.563222);
#292 = AXIS2_PLACEMENT_3D('',#293,#294,#295);
#293 = CARTESIAN_POINT('',(-23.096205,9.107961,0.));
#294 = DIRECTION('',(0.,0.,1.));
#295 = DIRECTION('',(1.,0.,0.));
#296 = FACE_BOUND('',#297,.F.);
#297 = EDGE_LOOP('',(#298));
#298 = ORIENTED_EDGE('',*,*,#299,.F.);
#299 = EDGE_CURVE('',#289,#289,#300,.T.);
#300 = CIRCLE('',#301,0.563222);
#301 = AXIS2_PLACEMENT_3D('',#302,#303,#304);
#302 = CARTESIAN_POINT('',(-23.096205,9.107961,0.));
#303 = DIRECTION('',(0.,0.,1.));
#304 = DIRECTION('',(1.,0.,0.));
#305 = FACE_BOUND('',#306,.F.);
#306 = EDGE_LOOP('',(#307));
#307 = ORIENTED_EDGE('',*,*,#308,.F.);
#308 = EDGE_CURVE('',#309,#309,#311,.T.);
#309 = VERTEX_POINT('',#310);
#310 = CARTESIAN_POINT('',(-22.532983,6.567961,0.));
#311 = CIRCLE('',#312,0.563222);
#312 = AXIS2_PLACEMENT_3D('',#313,#314,#315);
#313 = CARTESIAN_POINT('',(-23.096205,6.567961,0.));
#314 = DIRECTION('',(0.,0.,1.));
#315 = DIRECTION('',(1.,0.,0.));
#316 = FACE_BOUND('',#317,.F.);
#317 = EDGE_LOOP('',(#318));
#318 = ORIENTED_EDGE('',*,*,#319,.F.);
#319 = EDGE_CURVE('',#309,#309,#320,.T.);
#320 = CIRCLE('',#321,0.563222);
#321 = AXIS2_PLACEMENT_3D('',#322,#323,#324);
#322 = CARTESIAN_POINT('',(-23.096205,6.567961,0.));
#323 = DIRECTION('',(0.,0.,1.));
#324 = DIRECTION('',(1.,0.,0.));
#325 = FACE_BOUND('',#326,.F.);
#326 = EDGE_LOOP('',(#327));
#327 = ORIENTED_EDGE('',*,*,#328,.F.);
#328 = EDGE_CURVE('',#329,#329,#331,.T.);
#329 = VERTEX_POINT('',#330);
#330 = CARTESIAN_POINT('',(-22.532983,-6.132039,0.));
#331 = CIRCLE('',#332,0.563222);
#332 = AXIS2_PLACEMENT_3D('',#333,#334,#335);
#333 = CARTESIAN_POINT('',(-23.096205,-6.132039,0.));
#334 = DIRECTION('',(0.,0.,1.));
#335 = DIRECTION('',(1.,0.,0.));
#336 = FACE_BOUND('',#337,.F.);
#337 = EDGE_LOOP('',(#338));
#338 = ORIENTED_EDGE('',*,*,#339,.F.);
#339 = EDGE_CURVE('',#329,#329,#340,.T.);
#340 = CIRCLE('',#341,0.563222);
#341 = AXIS2_PLACEMENT_3D('',#342,#343,#344);
#342 = CARTESIAN_POINT('',(-23.096205,-6.132039,0.));
#343 = DIRECTION('',(0.,0.,1.));
#344 = DIRECTION('',(1.,0.,0.));
#345 = FACE_BOUND('',#346,.F.);
#346 = EDGE_LOOP('',(#347));
#347 = ORIENTED_EDGE('',*,*,#348,.F.);
#348 = EDGE_CURVE('',#349,#349,#351,.T.);
#349 = VERTEX_POINT('',#350);
#350 = CARTESIAN_POINT('',(-22.532983,-8.672039,0.));
#351 = CIRCLE('',#352,0.563222);
#352 = AXIS2_PLACEMENT_3D('',#353,#354,#355);
#353 = CARTESIAN_POINT('',(-23.096205,-8.672039,0.));
#354 = DIRECTION('',(0.,0.,1.));
#355 = DIRECTION('',(1.,0.,0.));
#356 = FACE_BOUND('',#357,.F.);
#357 = EDGE_LOOP('',(#358));
#358 = ORIENTED_EDGE('',*,*,#359,.F.);
#359 = EDGE_CURVE('',#349,#349,#360,.T.);
#360 = CIRCLE('',#361,0.563222);
#361 = AXIS2_PLACEMENT_3D('',#362,#363,#364);
#362 = CARTESIAN_POINT('',(-23.096205,-8.672039,0.));
#363 = DIRECTION('',(0.,0.,1.));
#364 = DIRECTION('',(1.,0.,0.));
#365 = PLANE('',#366);
#366 = AXIS2_PLACEMENT_3D('',#367,#368,#369);
#367 = CARTESIAN_POINT('',(-4.554653507707,3.543886543663E-02,0.));
#368 = DIRECTION('',(0.,0.,1.));
#369 = DIRECTION('',(1.,0.,0.));
#370 = ADVANCED_FACE('',(#371,#394,#405,#416,#425,#436,#445,#456,#465,
    #476,#485,#496,#507,#516,#527,#536,#547,#556,#567,#576,#587,#616),
  #627,.T.);
#371 = FACE_BOUND('',#372,.T.);
#372 = EDGE_LOOP('',(#373,#374,#375,#393));
#373 = ORIENTED_EDGE('',*,*,#49,.T.);
#374 = ORIENTED_EDGE('',*,*,#111,.T.);
#375 = ORIENTED_EDGE('',*,*,#376,.F.);
#376 = EDGE_CURVE('',#82,#112,#377,.T.);
#377 = B_SPLINE_CURVE_WITH_KNOTS('',3,(#378,#379,#380,#381,#382,#383,
    #384,#385,#386,#387,#388,#389,#390,#391,#392),.UNSPECIFIED.,.F.,.F.,
  (4,1,1,1,1,1,1,1,1,1,1,1,4),(0.,8.333333333333E-02,0.166666666667,0.25
    ,0.333333333333,0.416666666667,0.5,0.583333333333,0.666666666667,
    0.75,0.833333333333,0.916666666667,1.),.UNSPECIFIED.);
#378 = CARTESIAN_POINT('',(24.,15.5,1.2));
#379 = CARTESIAN_POINT('',(24.160053287809,10.686899151353,1.2));
#380 = CARTESIAN_POINT('',(23.277804689043,10.088867637739,1.2));
#381 = CARTESIAN_POINT('',(22.297137444435,9.893184845053,1.2));
#382 = CARTESIAN_POINT('',(21.237366818067,9.884257457928,1.2));
#383 = CARTESIAN_POINT('',(21.568647280818,5.521583947578,1.2));
#384 = CARTESIAN_POINT('',(21.374751715513,4.540561771603,1.2));
#385 = CARTESIAN_POINT('',(21.234012999991,-10.28615999999,1.2));
#386 = CARTESIAN_POINT('',(21.999654485308,-10.29274925407,1.2));
#387 = CARTESIAN_POINT('',(23.432065938359,-10.31187257176,1.2));
#388 = CARTESIAN_POINT('',(23.982601163171,-10.87559393369,1.2));
#389 = CARTESIAN_POINT('',(23.998772979379,-15.50005226404,1.2));
#390 = CARTESIAN_POINT('',(23.998772979379,-15.50005226404,1.2));
#391 = CARTESIAN_POINT('',(23.998772979379,-15.50005226404,1.2));
#392 = CARTESIAN_POINT('',(23.998772979379,-15.50005226404,1.2));
#393 = ORIENTED_EDGE('',*,*,#89,.T.);
#394 = FACE_BOUND('',#395,.T.);
#395 = EDGE_LOOP('',(#396));
#396 = ORIENTED_EDGE('',*,*,#397,.F.);
#397 = EDGE_CURVE('',#398,#398,#400,.T.);
#398 = VERTEX_POINT('',#399);
#399 = CARTESIAN_POINT('',(-20.25,-13.,1.2));
#400 = CIRCLE('',#401,1.25);
#401 = AXIS2_PLACEMENT_3D('',#402,#403,#404);
#402 = CARTESIAN_POINT('',(-21.5,-13.,1.2));
#403 = DIRECTION('',(0.,0.,1.));
#404 = DIRECTION('',(1.,0.,0.));
#405 = FACE_BOUND('',#406,.T.);
#406 = EDGE_LOOP('',(#407));
#407 = ORIENTED_EDGE('',*,*,#408,.F.);
#408 = EDGE_CURVE('',#409,#409,#411,.T.);
#409 = VERTEX_POINT('',#410);
#410 = CARTESIAN_POINT('',(-22.532983,-8.672039,1.2));
#411 = CIRCLE('',#412,0.563222);
#412 = AXIS2_PLACEMENT_3D('',#413,#414,#415);
#413 = CARTESIAN_POINT('',(-23.096205,-8.672039,1.2));
#414 = DIRECTION('',(0.,0.,1.));
#415 = DIRECTION('',(1.,0.,0.));
#416 = FACE_BOUND('',#417,.T.);
#417 = EDGE_LOOP('',(#418));
#418 = ORIENTED_EDGE('',*,*,#419,.F.);
#419 = EDGE_CURVE('',#409,#409,#420,.T.);
#420 = CIRCLE('',#421,0.563222);
#421 = AXIS2_PLACEMENT_3D('',#422,#423,#424);
#422 = CARTESIAN_POINT('',(-23.096205,-8.672039,1.2));
#423 = DIRECTION('',(0.,0.,1.));
#424 = DIRECTION('',(1.,0.,0.));
#425 = FACE_BOUND('',#426,.T.);
#426 = EDGE_LOOP('',(#427));
#427 = ORIENTED_EDGE('',*,*,#428,.F.);
#428 = EDGE_CURVE('',#429,#429,#431,.T.);
#429 = VERTEX_POINT('',#430);
#430 = CARTESIAN_POINT('',(-22.532983,-6.132039,1.2));
#431 = CIRCLE('',#432,0.563222);
#432 = AXIS2_PLACEMENT_3D('',#433,#434,#435);
#433 = CARTESIAN_POINT('',(-23.096205,-6.132039,1.2));
#434 = DIRECTION('',(0.,0.,1.));
#435 = DIRECTION('',(1.,0.,0.));
#436 = FACE_BOUND('',#437,.T.);
#437 = EDGE_LOOP('',(#438));
#438 = ORIENTED_EDGE('',*,*,#439,.F.);
#439 = EDGE_CURVE('',#429,#429,#440,.T.);
#440 = CIRCLE('',#441,0.563222);
#441 = AXIS2_PLACEMENT_3D('',#442,#443,#444);
#442 = CARTESIAN_POINT('',(-23.096205,-6.132039,1.2));
#443 = DIRECTION('',(0.,0.,1.));
#444 = DIRECTION('',(1.,0.,0.));
#445 = FACE_BOUND('',#446,.T.);
#446 = EDGE_LOOP('',(#447));
#447 = ORIENTED_EDGE('',*,*,#448,.F.);
#448 = EDGE_CURVE('',#449,#449,#451,.T.);
#449 = VERTEX_POINT('',#450);
#450 = CARTESIAN_POINT('',(-22.532983,-3.592039,1.2));
#451 = CIRCLE('',#452,0.563222);
#452 = AXIS2_PLACEMENT_3D('',#453,#454,#455);
#453 = CARTESIAN_POINT('',(-23.096205,-3.592039,1.2));
#454 = DIRECTION('',(0.,0.,1.));
#455 = DIRECTION('',(1.,0.,0.));
#456 = FACE_BOUND('',#457,.T.);
#457 = EDGE_LOOP('',(#458));
#458 = ORIENTED_EDGE('',*,*,#459,.F.);
#459 = EDGE_CURVE('',#449,#449,#460,.T.);
#460 = CIRCLE('',#461,0.563222);
#461 = AXIS2_PLACEMENT_3D('',#462,#463,#464);
#462 = CARTESIAN_POINT('',(-23.096205,-3.592039,1.2));
#463 = DIRECTION('',(0.,0.,1.));
#464 = DIRECTION('',(1.,0.,0.));
#465 = FACE_BOUND('',#466,.T.);
#466 = EDGE_LOOP('',(#467));
#467 = ORIENTED_EDGE('',*,*,#468,.F.);
#468 = EDGE_CURVE('',#469,#469,#471,.T.);
#469 = VERTEX_POINT('',#470);
#470 = CARTESIAN_POINT('',(-22.532983,-1.052039,1.2));
#471 = CIRCLE('',#472,0.563222);
#472 = AXIS2_PLACEMENT_3D('',#473,#474,#475);
#473 = CARTESIAN_POINT('',(-23.096205,-1.052039,1.2));
#474 = DIRECTION('',(0.,0.,1.));
#475 = DIRECTION('',(1.,0.,0.));
#476 = FACE_BOUND('',#477,.T.);
#477 = EDGE_LOOP('',(#478));
#478 = ORIENTED_EDGE('',*,*,#479,.F.);
#479 = EDGE_CURVE('',#469,#469,#480,.T.);
#480 = CIRCLE('',#481,0.563222);
#481 = AXIS2_PLACEMENT_3D('',#482,#483,#484);
#482 = CARTESIAN_POINT('',(-23.096205,-1.052039,1.2));
#483 = DIRECTION('',(0.,0.,1.));
#484 = DIRECTION('',(1.,0.,0.));
#485 = FACE_BOUND('',#486,.T.);
#486 = EDGE_LOOP('',(#487));
#487 = ORIENTED_EDGE('',*,*,#488,.F.);
#488 = EDGE_CURVE('',#489,#489,#491,.T.);
#489 = VERTEX_POINT('',#490);
#490 = CARTESIAN_POINT('',(22.75,-13.,1.2));
#491 = CIRCLE('',#492,1.25);
#492 = AXIS2_PLACEMENT_3D('',#493,#494,#495);
#493 = CARTESIAN_POINT('',(21.5,-13.,1.2));
#494 = DIRECTION('',(0.,0.,1.));
#495 = DIRECTION('',(1.,0.,0.));
#496 = FACE_BOUND('',#497,.T.);
#497 = EDGE_LOOP('',(#498));
#498 = ORIENTED_EDGE('',*,*,#499,.F.);
#499 = EDGE_CURVE('',#500,#500,#502,.T.);
#500 = VERTEX_POINT('',#501);
#501 = CARTESIAN_POINT('',(-22.532983,1.487961,1.2));
#502 = CIRCLE('',#503,0.563222);
#503 = AXIS2_PLACEMENT_3D('',#504,#505,#506);
#504 = CARTESIAN_POINT('',(-23.096205,1.487961,1.2));
#505 = DIRECTION('',(0.,0.,1.));
#506 = DIRECTION('',(1.,0.,0.));
#507 = FACE_BOUND('',#508,.T.);
#508 = EDGE_LOOP('',(#509));
#509 = ORIENTED_EDGE('',*,*,#510,.F.);
#510 = EDGE_CURVE('',#500,#500,#511,.T.);
#511 = CIRCLE('',#512,0.563222);
#512 = AXIS2_PLACEMENT_3D('',#513,#514,#515);
#513 = CARTESIAN_POINT('',(-23.096205,1.487961,1.2));
#514 = DIRECTION('',(0.,0.,1.));
#515 = DIRECTION('',(1.,0.,0.));
#516 = FACE_BOUND('',#517,.T.);
#517 = EDGE_LOOP('',(#518));
#518 = ORIENTED_EDGE('',*,*,#519,.F.);
#519 = EDGE_CURVE('',#520,#520,#522,.T.);
#520 = VERTEX_POINT('',#521);
#521 = CARTESIAN_POINT('',(-22.532983,4.027961,1.2));
#522 = CIRCLE('',#523,0.563222);
#523 = AXIS2_PLACEMENT_3D('',#524,#525,#526);
#524 = CARTESIAN_POINT('',(-23.096205,4.027961,1.2));
#525 = DIRECTION('',(0.,0.,1.));
#526 = DIRECTION('',(1.,0.,0.));
#527 = FACE_BOUND('',#528,.T.);
#528 = EDGE_LOOP('',(#529));
#529 = ORIENTED_EDGE('',*,*,#530,.F.);
#530 = EDGE_CURVE('',#520,#520,#531,.T.);
#531 = CIRCLE('',#532,0.563222);
#532 = AXIS2_PLACEMENT_3D('',#533,#534,#535);
#533 = CARTESIAN_POINT('',(-23.096205,4.027961,1.2));
#534 = DIRECTION('',(0.,0.,1.));
#535 = DIRECTION('',(1.,0.,0.));
#536 = FACE_BOUND('',#537,.T.);
#537 = EDGE_LOOP('',(#538));
#538 = ORIENTED_EDGE('',*,*,#539,.F.);
#539 = EDGE_CURVE('',#540,#540,#542,.T.);
#540 = VERTEX_POINT('',#541);
#541 = CARTESIAN_POINT('',(-22.532983,6.567961,1.2));
#542 = CIRCLE('',#543,0.563222);
#543 = AXIS2_PLACEMENT_3D('',#544,#545,#546);
#544 = CARTESIAN_POINT('',(-23.096205,6.567961,1.2));
#545 = DIRECTION('',(0.,0.,1.));
#546 = DIRECTION('',(1.,0.,0.));
#547 = FACE_BOUND('',#548,.T.);
#548 = EDGE_LOOP('',(#549));
#549 = ORIENTED_EDGE('',*,*,#550,.F.);
#550 = EDGE_CURVE('',#540,#540,#551,.T.);
#551 = CIRCLE('',#552,0.563222);
#552 = AXIS2_PLACEMENT_3D('',#553,#554,#555);
#553 = CARTESIAN_POINT('',(-23.096205,6.567961,1.2));
#554 = DIRECTION('',(0.,0.,1.));
#555 = DIRECTION('',(1.,0.,0.));
#556 = FACE_BOUND('',#557,.T.);
#557 = EDGE_LOOP('',(#558));
#558 = ORIENTED_EDGE('',*,*,#559,.F.);
#559 = EDGE_CURVE('',#560,#560,#562,.T.);
#560 = VERTEX_POINT('',#561);
#561 = CARTESIAN_POINT('',(-22.532983,9.107961,1.2));
#562 = CIRCLE('',#563,0.563222);
#563 = AXIS2_PLACEMENT_3D('',#564,#565,#566);
#564 = CARTESIAN_POINT('',(-23.096205,9.107961,1.2));
#565 = DIRECTION('',(0.,0.,1.));
#566 = DIRECTION('',(1.,0.,0.));
#567 = FACE_BOUND('',#568,.T.);
#568 = EDGE_LOOP('',(#569));
#569 = ORIENTED_EDGE('',*,*,#570,.F.);
#570 = EDGE_CURVE('',#560,#560,#571,.T.);
#571 = CIRCLE('',#572,0.563222);
#572 = AXIS2_PLACEMENT_3D('',#573,#574,#575);
#573 = CARTESIAN_POINT('',(-23.096205,9.107961,1.2));
#574 = DIRECTION('',(0.,0.,1.));
#575 = DIRECTION('',(1.,0.,0.));
#576 = FACE_BOUND('',#577,.T.);
#577 = EDGE_LOOP('',(#578));
#578 = ORIENTED_EDGE('',*,*,#579,.F.);
#579 = EDGE_CURVE('',#580,#580,#582,.T.);
#580 = VERTEX_POINT('',#581);
#581 = CARTESIAN_POINT('',(-20.25,13.,1.2));
#582 = CIRCLE('',#583,1.25);
#583 = AXIS2_PLACEMENT_3D('',#584,#585,#586);
#584 = CARTESIAN_POINT('',(-21.5,13.,1.2));
#585 = DIRECTION('',(0.,0.,1.));
#586 = DIRECTION('',(1.,0.,0.));
#587 = FACE_BOUND('',#588,.T.);
#588 = EDGE_LOOP('',(#589));
#589 = ORIENTED_EDGE('',*,*,#590,.T.);
#590 = EDGE_CURVE('',#591,#591,#593,.T.);
#591 = VERTEX_POINT('',#592);
#592 = CARTESIAN_POINT('',(-19.0548,10.6407,1.2));
#593 = B_SPLINE_CURVE_WITH_KNOTS('',3,(#594,#595,#596,#597,#598,#599,
    #600,#601,#602,#603,#604,#605,#606,#607,#608,#609,#610,#611,#612,
    #613,#614,#615),.UNSPECIFIED.,.T.,.F.,(4,1,1,1,1,1,1,1,1,1,1,1,1,1,1
    ,1,1,1,1,4),(0.,5.263157894737E-02,0.105263157895,0.157894736842,
    0.210526315789,0.263157894737,0.315789473684,0.368421052632,
    0.421052631579,0.473684210526,0.526315789474,0.578947368421,
    0.631578947368,0.684210526316,0.736842105263,0.789473684211,
    0.842105263158,0.894736842105,0.947368421053,1.),.UNSPECIFIED.);
#594 = CARTESIAN_POINT('',(-19.0548,10.6407,1.2));
#595 = CARTESIAN_POINT('',(-18.4105,12.5995,1.2));
#596 = CARTESIAN_POINT('',(-17.2507,14.017,1.2));
#597 = CARTESIAN_POINT('',(-15.8331,14.8418,1.2));
#598 = CARTESIAN_POINT('',(-14.261,15.1768,1.2));
#599 = CARTESIAN_POINT('',(15.1207,15.1768,1.2));
#600 = CARTESIAN_POINT('',(16.7702,14.6614,1.2));
#601 = CARTESIAN_POINT('',(18.0073,13.7335,1.2));
#602 = CARTESIAN_POINT('',(18.7032,12.3418,1.2));
#603 = CARTESIAN_POINT('',(18.6794,11.342083260118,1.2));
#604 = CARTESIAN_POINT('',(18.679406,-10.93183302202,1.2));
#605 = CARTESIAN_POINT('',(18.7019,-11.93158,1.2));
#606 = CARTESIAN_POINT('',(18.1877,-13.1481,1.2));
#607 = CARTESIAN_POINT('',(17.4919,-14.0502,1.2));
#608 = CARTESIAN_POINT('',(16.2547,-14.9265,1.2));
#609 = CARTESIAN_POINT('',(14.9145,-15.3131,1.2));
#610 = CARTESIAN_POINT('',(-14.77645405554,-15.3131,1.2));
#611 = CARTESIAN_POINT('',(-15.7532,-15.0987,1.2));
#612 = CARTESIAN_POINT('',(-17.4053,-14.0502,1.2));
#613 = CARTESIAN_POINT('',(-18.9002,-11.679,1.2));
#614 = CARTESIAN_POINT('',(-18.9002,-8.66355,1.2));
#615 = CARTESIAN_POINT('',(-19.0548,10.6407,1.2));
#616 = FACE_BOUND('',#617,.T.);
#617 = EDGE_LOOP('',(#618));
#618 = ORIENTED_EDGE('',*,*,#619,.F.);
#619 = EDGE_CURVE('',#620,#620,#622,.T.);
#620 = VERTEX_POINT('',#621);
#621 = CARTESIAN_POINT('',(22.75,13.,1.2));
#622 = CIRCLE('',#623,1.25);
#623 = AXIS2_PLACEMENT_3D('',#624,#625,#626);
#624 = CARTESIAN_POINT('',(21.5,13.,1.2));
#625 = DIRECTION('',(0.,0.,1.));
#626 = DIRECTION('',(1.,0.,0.));
#627 = PLANE('',#628);
#628 = AXIS2_PLACEMENT_3D('',#629,#630,#631);
#629 = CARTESIAN_POINT('',(-4.554653507707,3.543886543663E-02,1.2));
#630 = DIRECTION('',(0.,0.,1.));
#631 = DIRECTION('',(1.,0.,0.));
#632 = ADVANCED_FACE('',(#633),#639,.T.);
#633 = FACE_BOUND('',#634,.T.);
#634 = EDGE_LOOP('',(#635,#636,#637,#638));
#635 = ORIENTED_EDGE('',*,*,#79,.T.);
#636 = ORIENTED_EDGE('',*,*,#376,.T.);
#637 = ORIENTED_EDGE('',*,*,#119,.F.);
#638 = ORIENTED_EDGE('',*,*,#143,.F.);
#639 = SURFACE_OF_LINEAR_EXTRUSION('',#640,#656);
#640 = B_SPLINE_CURVE_WITH_KNOTS('',3,(#641,#642,#643,#644,#645,#646,
    #647,#648,#649,#650,#651,#652,#653,#654,#655),.UNSPECIFIED.,.F.,.F.,
  (4,1,1,1,1,1,1,1,1,1,1,1,4),(0.,8.333333333333E-02,0.166666666667,0.25
    ,0.333333333333,0.416666666667,0.5,0.583333333333,0.666666666667,
    0.75,0.833333333333,0.916666666667,1.),.UNSPECIFIED.);
#641 = CARTESIAN_POINT('',(24.,15.5,0.));
#642 = CARTESIAN_POINT('',(24.160053287809,10.686899151353,0.));
#643 = CARTESIAN_POINT('',(23.277804689043,10.088867637739,0.));
#644 = CARTESIAN_POINT('',(22.297137444435,9.893184845053,0.));
#645 = CARTESIAN_POINT('',(21.237366818067,9.884257457928,0.));
#646 = CARTESIAN_POINT('',(21.568647280818,5.521583947578,0.));
#647 = CARTESIAN_POINT('',(21.374751715513,4.540561771603,0.));
#648 = CARTESIAN_POINT('',(21.234012999991,-10.28615999999,0.));
#649 = CARTESIAN_POINT('',(21.999654485308,-10.29274925407,0.));
#650 = CARTESIAN_POINT('',(23.432065938359,-10.31187257176,0.));
#651 = CARTESIAN_POINT('',(23.982601163171,-10.87559393369,0.));
#652 = CARTESIAN_POINT('',(23.998772979379,-15.50005226404,0.));
#653 = CARTESIAN_POINT('',(23.998772979379,-15.50005226404,0.));
#654 = CARTESIAN_POINT('',(23.998772979379,-15.50005226404,0.));
#655 = CARTESIAN_POINT('',(23.998772979379,-15.50005226404,0.));
#656 = VECTOR('',#657,1.);
#657 = DIRECTION('',(-0.,-0.,-1.));
#658 = ADVANCED_FACE('',(#659),#670,.F.);
#659 = FACE_BOUND('',#660,.T.);
#660 = EDGE_LOOP('',(#661,#667,#668,#669));
#661 = ORIENTED_EDGE('',*,*,#662,.T.);
#662 = EDGE_CURVE('',#165,#620,#663,.T.);
#663 = LINE('',#664,#665);
#664 = CARTESIAN_POINT('',(22.75,13.,0.));
#665 = VECTOR('',#666,1.);
#666 = DIRECTION('',(0.,0.,1.));
#667 = ORIENTED_EDGE('',*,*,#619,.T.);
#668 = ORIENTED_EDGE('',*,*,#662,.F.);
#669 = ORIENTED_EDGE('',*,*,#164,.F.);
#670 = CYLINDRICAL_SURFACE('',#671,1.25);
#671 = AXIS2_PLACEMENT_3D('',#672,#673,#674);
#672 = CARTESIAN_POINT('',(21.5,13.,0.));
#673 = DIRECTION('',(-0.,-0.,-1.));
#674 = DIRECTION('',(1.,0.,0.));
#675 = ADVANCED_FACE('',(#676),#687,.F.);
#676 = FACE_BOUND('',#677,.T.);
#677 = EDGE_LOOP('',(#678,#684,#685,#686));
#678 = ORIENTED_EDGE('',*,*,#679,.T.);
#679 = EDGE_CURVE('',#176,#489,#680,.T.);
#680 = LINE('',#681,#682);
#681 = CARTESIAN_POINT('',(22.75,-13.,0.));
#682 = VECTOR('',#683,1.);
#683 = DIRECTION('',(0.,0.,1.));
#684 = ORIENTED_EDGE('',*,*,#488,.T.);
#685 = ORIENTED_EDGE('',*,*,#679,.F.);
#686 = ORIENTED_EDGE('',*,*,#175,.F.);
#687 = CYLINDRICAL_SURFACE('',#688,1.25);
#688 = AXIS2_PLACEMENT_3D('',#689,#690,#691);
#689 = CARTESIAN_POINT('',(21.5,-13.,0.));
#690 = DIRECTION('',(-0.,-0.,-1.));
#691 = DIRECTION('',(1.,0.,0.));
#692 = ADVANCED_FACE('',(#693),#704,.F.);
#693 = FACE_BOUND('',#694,.T.);
#694 = EDGE_LOOP('',(#695,#701,#702,#703));
#695 = ORIENTED_EDGE('',*,*,#696,.T.);
#696 = EDGE_CURVE('',#187,#398,#697,.T.);
#697 = LINE('',#698,#699);
#698 = CARTESIAN_POINT('',(-20.25,-13.,0.));
#699 = VECTOR('',#700,1.);
#700 = DIRECTION('',(0.,0.,1.));
#701 = ORIENTED_EDGE('',*,*,#397,.T.);
#702 = ORIENTED_EDGE('',*,*,#696,.F.);
#703 = ORIENTED_EDGE('',*,*,#186,.F.);
#704 = CYLINDRICAL_SURFACE('',#705,1.25);
#705 = AXIS2_PLACEMENT_3D('',#706,#707,#708);
#706 = CARTESIAN_POINT('',(-21.5,-13.,0.));
#707 = DIRECTION('',(-0.,-0.,-1.));
#708 = DIRECTION('',(1.,0.,0.));
#709 = ADVANCED_FACE('',(#710),#721,.F.);
#710 = FACE_BOUND('',#711,.T.);
#711 = EDGE_LOOP('',(#712,#718,#719,#720));
#712 = ORIENTED_EDGE('',*,*,#713,.T.);
#713 = EDGE_CURVE('',#198,#580,#714,.T.);
#714 = LINE('',#715,#716);
#715 = CARTESIAN_POINT('',(-20.25,13.,0.));
#716 = VECTOR('',#717,1.);
#717 = DIRECTION('',(0.,0.,1.));
#718 = ORIENTED_EDGE('',*,*,#579,.T.);
#719 = ORIENTED_EDGE('',*,*,#713,.F.);
#720 = ORIENTED_EDGE('',*,*,#197,.F.);
#721 = CYLINDRICAL_SURFACE('',#722,1.25);
#722 = AXIS2_PLACEMENT_3D('',#723,#724,#725);
#723 = CARTESIAN_POINT('',(-21.5,13.,0.));
#724 = DIRECTION('',(-0.,-0.,-1.));
#725 = DIRECTION('',(1.,0.,0.));
#726 = ADVANCED_FACE('',(#727),#738,.F.);
#727 = FACE_BOUND('',#728,.T.);
#728 = EDGE_LOOP('',(#729,#735,#736,#737));
#729 = ORIENTED_EDGE('',*,*,#730,.T.);
#730 = EDGE_CURVE('',#209,#449,#731,.T.);
#731 = LINE('',#732,#733);
#732 = CARTESIAN_POINT('',(-22.532983,-3.592039,0.));
#733 = VECTOR('',#734,1.);
#734 = DIRECTION('',(0.,0.,1.));
#735 = ORIENTED_EDGE('',*,*,#459,.T.);
#736 = ORIENTED_EDGE('',*,*,#730,.F.);
#737 = ORIENTED_EDGE('',*,*,#208,.F.);
#738 = CYLINDRICAL_SURFACE('',#739,0.563222);
#739 = AXIS2_PLACEMENT_3D('',#740,#741,#742);
#740 = CARTESIAN_POINT('',(-23.096205,-3.592039,0.));
#741 = DIRECTION('',(-0.,-0.,-1.));
#742 = DIRECTION('',(1.,0.,0.));
#743 = ADVANCED_FACE('',(#744),#750,.F.);
#744 = FACE_BOUND('',#745,.T.);
#745 = EDGE_LOOP('',(#746,#747,#748,#749));
#746 = ORIENTED_EDGE('',*,*,#730,.T.);
#747 = ORIENTED_EDGE('',*,*,#448,.T.);
#748 = ORIENTED_EDGE('',*,*,#730,.F.);
#749 = ORIENTED_EDGE('',*,*,#219,.F.);
#750 = CYLINDRICAL_SURFACE('',#751,0.563222);
#751 = AXIS2_PLACEMENT_3D('',#752,#753,#754);
#752 = CARTESIAN_POINT('',(-23.096205,-3.592039,0.));
#753 = DIRECTION('',(-0.,-0.,-1.));
#754 = DIRECTION('',(1.,0.,0.));
#755 = ADVANCED_FACE('',(#756),#767,.F.);
#756 = FACE_BOUND('',#757,.T.);
#757 = EDGE_LOOP('',(#758,#764,#765,#766));
#758 = ORIENTED_EDGE('',*,*,#759,.T.);
#759 = EDGE_CURVE('',#229,#520,#760,.T.);
#760 = LINE('',#761,#762);
#761 = CARTESIAN_POINT('',(-22.532983,4.027961,0.));
#762 = VECTOR('',#763,1.);
#763 = DIRECTION('',(0.,0.,1.));
#764 = ORIENTED_EDGE('',*,*,#519,.T.);
#765 = ORIENTED_EDGE('',*,*,#759,.F.);
#766 = ORIENTED_EDGE('',*,*,#228,.F.);
#767 = CYLINDRICAL_SURFACE('',#768,0.563222);
#768 = AXIS2_PLACEMENT_3D('',#769,#770,#771);
#769 = CARTESIAN_POINT('',(-23.096205,4.027961,0.));
#770 = DIRECTION('',(-0.,-0.,-1.));
#771 = DIRECTION('',(1.,0.,0.));
#772 = ADVANCED_FACE('',(#773),#779,.F.);
#773 = FACE_BOUND('',#774,.T.);
#774 = EDGE_LOOP('',(#775,#776,#777,#778));
#775 = ORIENTED_EDGE('',*,*,#759,.T.);
#776 = ORIENTED_EDGE('',*,*,#530,.T.);
#777 = ORIENTED_EDGE('',*,*,#759,.F.);
#778 = ORIENTED_EDGE('',*,*,#239,.F.);
#779 = CYLINDRICAL_SURFACE('',#780,0.563222);
#780 = AXIS2_PLACEMENT_3D('',#781,#782,#783);
#781 = CARTESIAN_POINT('',(-23.096205,4.027961,0.));
#782 = DIRECTION('',(-0.,-0.,-1.));
#783 = DIRECTION('',(1.,0.,0.));
#784 = ADVANCED_FACE('',(#785),#796,.F.);
#785 = FACE_BOUND('',#786,.T.);
#786 = EDGE_LOOP('',(#787,#793,#794,#795));
#787 = ORIENTED_EDGE('',*,*,#788,.T.);
#788 = EDGE_CURVE('',#249,#500,#789,.T.);
#789 = LINE('',#790,#791);
#790 = CARTESIAN_POINT('',(-22.532983,1.487961,0.));
#791 = VECTOR('',#792,1.);
#792 = DIRECTION('',(0.,0.,1.));
#793 = ORIENTED_EDGE('',*,*,#510,.T.);
#794 = ORIENTED_EDGE('',*,*,#788,.F.);
#795 = ORIENTED_EDGE('',*,*,#248,.F.);
#796 = CYLINDRICAL_SURFACE('',#797,0.563222);
#797 = AXIS2_PLACEMENT_3D('',#798,#799,#800);
#798 = CARTESIAN_POINT('',(-23.096205,1.487961,0.));
#799 = DIRECTION('',(-0.,-0.,-1.));
#800 = DIRECTION('',(1.,0.,0.));
#801 = ADVANCED_FACE('',(#802),#808,.F.);
#802 = FACE_BOUND('',#803,.T.);
#803 = EDGE_LOOP('',(#804,#805,#806,#807));
#804 = ORIENTED_EDGE('',*,*,#788,.T.);
#805 = ORIENTED_EDGE('',*,*,#499,.T.);
#806 = ORIENTED_EDGE('',*,*,#788,.F.);
#807 = ORIENTED_EDGE('',*,*,#259,.F.);
#808 = CYLINDRICAL_SURFACE('',#809,0.563222);
#809 = AXIS2_PLACEMENT_3D('',#810,#811,#812);
#810 = CARTESIAN_POINT('',(-23.096205,1.487961,0.));
#811 = DIRECTION('',(-0.,-0.,-1.));
#812 = DIRECTION('',(1.,0.,0.));
#813 = ADVANCED_FACE('',(#814),#825,.F.);
#814 = FACE_BOUND('',#815,.T.);
#815 = EDGE_LOOP('',(#816,#822,#823,#824));
#816 = ORIENTED_EDGE('',*,*,#817,.T.);
#817 = EDGE_CURVE('',#269,#469,#818,.T.);
#818 = LINE('',#819,#820);
#819 = CARTESIAN_POINT('',(-22.532983,-1.052039,0.));
#820 = VECTOR('',#821,1.);
#821 = DIRECTION('',(0.,0.,1.));
#822 = ORIENTED_EDGE('',*,*,#468,.T.);
#823 = ORIENTED_EDGE('',*,*,#817,.F.);
#824 = ORIENTED_EDGE('',*,*,#268,.F.);
#825 = CYLINDRICAL_SURFACE('',#826,0.563222);
#826 = AXIS2_PLACEMENT_3D('',#827,#828,#829);
#827 = CARTESIAN_POINT('',(-23.096205,-1.052039,0.));
#828 = DIRECTION('',(-0.,-0.,-1.));
#829 = DIRECTION('',(1.,0.,0.));
#830 = ADVANCED_FACE('',(#831),#837,.F.);
#831 = FACE_BOUND('',#832,.T.);
#832 = EDGE_LOOP('',(#833,#834,#835,#836));
#833 = ORIENTED_EDGE('',*,*,#817,.T.);
#834 = ORIENTED_EDGE('',*,*,#479,.T.);
#835 = ORIENTED_EDGE('',*,*,#817,.F.);
#836 = ORIENTED_EDGE('',*,*,#279,.F.);
#837 = CYLINDRICAL_SURFACE('',#838,0.563222);
#838 = AXIS2_PLACEMENT_3D('',#839,#840,#841);
#839 = CARTESIAN_POINT('',(-23.096205,-1.052039,0.));
#840 = DIRECTION('',(-0.,-0.,-1.));
#841 = DIRECTION('',(1.,0.,0.));
#842 = ADVANCED_FACE('',(#843),#854,.F.);
#843 = FACE_BOUND('',#844,.T.);
#844 = EDGE_LOOP('',(#845,#851,#852,#853));
#845 = ORIENTED_EDGE('',*,*,#846,.T.);
#846 = EDGE_CURVE('',#289,#560,#847,.T.);
#847 = LINE('',#848,#849);
#848 = CARTESIAN_POINT('',(-22.532983,9.107961,0.));
#849 = VECTOR('',#850,1.);
#850 = DIRECTION('',(0.,0.,1.));
#851 = ORIENTED_EDGE('',*,*,#570,.T.);
#852 = ORIENTED_EDGE('',*,*,#846,.F.);
#853 = ORIENTED_EDGE('',*,*,#288,.F.);
#854 = CYLINDRICAL_SURFACE('',#855,0.563222);
#855 = AXIS2_PLACEMENT_3D('',#856,#857,#858);
#856 = CARTESIAN_POINT('',(-23.096205,9.107961,0.));
#857 = DIRECTION('',(-0.,-0.,-1.));
#858 = DIRECTION('',(1.,0.,0.));
#859 = ADVANCED_FACE('',(#860),#866,.F.);
#860 = FACE_BOUND('',#861,.T.);
#861 = EDGE_LOOP('',(#862,#863,#864,#865));
#862 = ORIENTED_EDGE('',*,*,#846,.T.);
#863 = ORIENTED_EDGE('',*,*,#559,.T.);
#864 = ORIENTED_EDGE('',*,*,#846,.F.);
#865 = ORIENTED_EDGE('',*,*,#299,.F.);
#866 = CYLINDRICAL_SURFACE('',#867,0.563222);
#867 = AXIS2_PLACEMENT_3D('',#868,#869,#870);
#868 = CARTESIAN_POINT('',(-23.096205,9.107961,0.));
#869 = DIRECTION('',(-0.,-0.,-1.));
#870 = DIRECTION('',(1.,0.,0.));
#871 = ADVANCED_FACE('',(#872),#883,.F.);
#872 = FACE_BOUND('',#873,.T.);
#873 = EDGE_LOOP('',(#874,#880,#881,#882));
#874 = ORIENTED_EDGE('',*,*,#875,.T.);
#875 = EDGE_CURVE('',#309,#540,#876,.T.);
#876 = LINE('',#877,#878);
#877 = CARTESIAN_POINT('',(-22.532983,6.567961,0.));
#878 = VECTOR('',#879,1.);
#879 = DIRECTION('',(0.,0.,1.));
#880 = ORIENTED_EDGE('',*,*,#539,.T.);
#881 = ORIENTED_EDGE('',*,*,#875,.F.);
#882 = ORIENTED_EDGE('',*,*,#308,.F.);
#883 = CYLINDRICAL_SURFACE('',#884,0.563222);
#884 = AXIS2_PLACEMENT_3D('',#885,#886,#887);
#885 = CARTESIAN_POINT('',(-23.096205,6.567961,0.));
#886 = DIRECTION('',(-0.,-0.,-1.));
#887 = DIRECTION('',(1.,0.,0.));
#888 = ADVANCED_FACE('',(#889),#895,.F.);
#889 = FACE_BOUND('',#890,.T.);
#890 = EDGE_LOOP('',(#891,#892,#893,#894));
#891 = ORIENTED_EDGE('',*,*,#875,.T.);
#892 = ORIENTED_EDGE('',*,*,#550,.T.);
#893 = ORIENTED_EDGE('',*,*,#875,.F.);
#894 = ORIENTED_EDGE('',*,*,#319,.F.);
#895 = CYLINDRICAL_SURFACE('',#896,0.563222);
#896 = AXIS2_PLACEMENT_3D('',#897,#898,#899);
#897 = CARTESIAN_POINT('',(-23.096205,6.567961,0.));
#898 = DIRECTION('',(-0.,-0.,-1.));
#899 = DIRECTION('',(1.,0.,0.));
#900 = ADVANCED_FACE('',(#901),#912,.F.);
#901 = FACE_BOUND('',#902,.T.);
#902 = EDGE_LOOP('',(#903,#909,#910,#911));
#903 = ORIENTED_EDGE('',*,*,#904,.T.);
#904 = EDGE_CURVE('',#329,#429,#905,.T.);
#905 = LINE('',#906,#907);
#906 = CARTESIAN_POINT('',(-22.532983,-6.132039,0.));
#907 = VECTOR('',#908,1.);
#908 = DIRECTION('',(0.,0.,1.));
#909 = ORIENTED_EDGE('',*,*,#428,.T.);
#910 = ORIENTED_EDGE('',*,*,#904,.F.);
#911 = ORIENTED_EDGE('',*,*,#328,.F.);
#912 = CYLINDRICAL_SURFACE('',#913,0.563222);
#913 = AXIS2_PLACEMENT_3D('',#914,#915,#916);
#914 = CARTESIAN_POINT('',(-23.096205,-6.132039,0.));
#915 = DIRECTION('',(-0.,-0.,-1.));
#916 = DIRECTION('',(1.,0.,0.));
#917 = ADVANCED_FACE('',(#918),#924,.F.);
#918 = FACE_BOUND('',#919,.T.);
#919 = EDGE_LOOP('',(#920,#921,#922,#923));
#920 = ORIENTED_EDGE('',*,*,#904,.T.);
#921 = ORIENTED_EDGE('',*,*,#439,.T.);
#922 = ORIENTED_EDGE('',*,*,#904,.F.);
#923 = ORIENTED_EDGE('',*,*,#339,.F.);
#924 = CYLINDRICAL_SURFACE('',#925,0.563222);
#925 = AXIS2_PLACEMENT_3D('',#926,#927,#928);
#926 = CARTESIAN_POINT('',(-23.096205,-6.132039,0.));
#927 = DIRECTION('',(-0.,-0.,-1.));
#928 = DIRECTION('',(1.,0.,0.));
#929 = ADVANCED_FACE('',(#930),#941,.F.);
#930 = FACE_BOUND('',#931,.T.);
#931 = EDGE_LOOP('',(#932,#938,#939,#940));
#932 = ORIENTED_EDGE('',*,*,#933,.T.);
#933 = EDGE_CURVE('',#349,#409,#934,.T.);
#934 = LINE('',#935,#936);
#935 = CARTESIAN_POINT('',(-22.532983,-8.672039,0.));
#936 = VECTOR('',#937,1.);
#937 = DIRECTION('',(0.,0.,1.));
#938 = ORIENTED_EDGE('',*,*,#408,.T.);
#939 = ORIENTED_EDGE('',*,*,#933,.F.);
#940 = ORIENTED_EDGE('',*,*,#348,.F.);
#941 = CYLINDRICAL_SURFACE('',#942,0.563222);
#942 = AXIS2_PLACEMENT_3D('',#943,#944,#945);
#943 = CARTESIAN_POINT('',(-23.096205,-8.672039,0.));
#944 = DIRECTION('',(-0.,-0.,-1.));
#945 = DIRECTION('',(1.,0.,0.));
#946 = ADVANCED_FACE('',(#947),#953,.F.);
#947 = FACE_BOUND('',#948,.T.);
#948 = EDGE_LOOP('',(#949,#950,#951,#952));
#949 = ORIENTED_EDGE('',*,*,#933,.T.);
#950 = ORIENTED_EDGE('',*,*,#419,.T.);
#951 = ORIENTED_EDGE('',*,*,#933,.F.);
#952 = ORIENTED_EDGE('',*,*,#359,.F.);
#953 = CYLINDRICAL_SURFACE('',#954,0.563222);
#954 = AXIS2_PLACEMENT_3D('',#955,#956,#957);
#955 = CARTESIAN_POINT('',(-23.096205,-8.672039,0.));
#956 = DIRECTION('',(-0.,-0.,-1.));
#957 = DIRECTION('',(1.,0.,0.));
#958 = ADVANCED_FACE('',(#959),#996,.T.);
#959 = FACE_BOUND('',#960,.T.);
#960 = EDGE_LOOP('',(#961,#969,#994,#995));
#961 = ORIENTED_EDGE('',*,*,#962,.T.);
#962 = EDGE_CURVE('',#591,#963,#965,.T.);
#963 = VERTEX_POINT('',#964);
#964 = CARTESIAN_POINT('',(-19.0548,10.6407,3.33));
#965 = LINE('',#966,#967);
#966 = CARTESIAN_POINT('',(-19.0548,10.6407,1.2));
#967 = VECTOR('',#968,1.);
#968 = DIRECTION('',(0.,0.,1.));
#969 = ORIENTED_EDGE('',*,*,#970,.T.);
#970 = EDGE_CURVE('',#963,#963,#971,.T.);
#971 = B_SPLINE_CURVE_WITH_KNOTS('',3,(#972,#973,#974,#975,#976,#977,
    #978,#979,#980,#981,#982,#983,#984,#985,#986,#987,#988,#989,#990,
    #991,#992,#993),.UNSPECIFIED.,.T.,.F.,(4,1,1,1,1,1,1,1,1,1,1,1,1,1,1
    ,1,1,1,1,4),(0.,5.263157894737E-02,0.105263157895,0.157894736842,
    0.210526315789,0.263157894737,0.315789473684,0.368421052632,
    0.421052631579,0.473684210526,0.526315789474,0.578947368421,
    0.631578947368,0.684210526316,0.736842105263,0.789473684211,
    0.842105263158,0.894736842105,0.947368421053,1.),.UNSPECIFIED.);
#972 = CARTESIAN_POINT('',(-19.0548,10.6407,3.33));
#973 = CARTESIAN_POINT('',(-18.4105,12.5995,3.33));
#974 = CARTESIAN_POINT('',(-17.2507,14.017,3.33));
#975 = CARTESIAN_POINT('',(-15.8331,14.8418,3.33));
#976 = CARTESIAN_POINT('',(-14.261,15.1768,3.33));
#977 = CARTESIAN_POINT('',(15.1207,15.1768,3.33));
#978 = CARTESIAN_POINT('',(16.7702,14.6614,3.33));
#979 = CARTESIAN_POINT('',(18.0073,13.7335,3.33));
#980 = CARTESIAN_POINT('',(18.7032,12.3418,3.33));
#981 = CARTESIAN_POINT('',(18.6794,11.342083260118,3.33));
#982 = CARTESIAN_POINT('',(18.679406,-10.93183302202,3.33));
#983 = CARTESIAN_POINT('',(18.7019,-11.93158,3.33));
#984 = CARTESIAN_POINT('',(18.1877,-13.1481,3.33));
#985 = CARTESIAN_POINT('',(17.4919,-14.0502,3.33));
#986 = CARTESIAN_POINT('',(16.2547,-14.9265,3.33));
#987 = CARTESIAN_POINT('',(14.9145,-15.3131,3.33));
#988 = CARTESIAN_POINT('',(-14.77645405554,-15.3131,3.33));
#989 = CARTESIAN_POINT('',(-15.7532,-15.0987,3.33));
#990 = CARTESIAN_POINT('',(-17.4053,-14.0502,3.33));
#991 = CARTESIAN_POINT('',(-18.9002,-11.679,3.33));
#992 = CARTESIAN_POINT('',(-18.9002,-8.66355,3.33));
#993 = CARTESIAN_POINT('',(-19.0548,10.6407,3.33));
#994 = ORIENTED_EDGE('',*,*,#962,.F.);
#995 = ORIENTED_EDGE('',*,*,#590,.F.);
#996 = SURFACE_OF_LINEAR_EXTRUSION('',#997,#1020);
#997 = B_SPLINE_CURVE_WITH_KNOTS('',3,(#998,#999,#1000,#1001,#1002,#1003
    ,#1004,#1005,#1006,#1007,#1008,#1009,#1010,#1011,#1012,#1013,#1014,
    #1015,#1016,#1017,#1018,#1019),.UNSPECIFIED.,.T.,.F.,(4,1,1,1,1,1,1,
    1,1,1,1,1,1,1,1,1,1,1,1,4),(0.,5.263157894737E-02,0.105263157895,
    0.157894736842,0.210526315789,0.263157894737,0.315789473684,
    0.368421052632,0.421052631579,0.473684210526,0.526315789474,
    0.578947368421,0.631578947368,0.684210526316,0.736842105263,
    0.789473684211,0.842105263158,0.894736842105,0.947368421053,1.),
  .UNSPECIFIED.);
#998 = CARTESIAN_POINT('',(-19.0548,10.6407,1.2));
#999 = CARTESIAN_POINT('',(-18.4105,12.5995,1.2));
#1000 = CARTESIAN_POINT('',(-17.2507,14.017,1.2));
#1001 = CARTESIAN_POINT('',(-15.8331,14.8418,1.2));
#1002 = CARTESIAN_POINT('',(-14.261,15.1768,1.2));
#1003 = CARTESIAN_POINT('',(15.1207,15.1768,1.2));
#1004 = CARTESIAN_POINT('',(16.7702,14.6614,1.2));
#1005 = CARTESIAN_POINT('',(18.0073,13.7335,1.2));
#1006 = CARTESIAN_POINT('',(18.7032,12.3418,1.2));
#1007 = CARTESIAN_POINT('',(18.6794,11.342083260118,1.2));
#1008 = CARTESIAN_POINT('',(18.679406,-10.93183302202,1.2));
#1009 = CARTESIAN_POINT('',(18.7019,-11.93158,1.2));
#1010 = CARTESIAN_POINT('',(18.1877,-13.1481,1.2));
#1011 = CARTESIAN_POINT('',(17.4919,-14.0502,1.2));
#1012 = CARTESIAN_POINT('',(16.2547,-14.9265,1.2));
#1013 = CARTESIAN_POINT('',(14.9145,-15.3131,1.2));
#1014 = CARTESIAN_POINT('',(-14.77645405554,-15.3131,1.2));
#1015 = CARTESIAN_POINT('',(-15.7532,-15.0987,1.2));
#1016 = CARTESIAN_POINT('',(-17.4053,-14.0502,1.2));
#1017 = CARTESIAN_POINT('',(-18.9002,-11.679,1.2));
#1018 = CARTESIAN_POINT('',(-18.9002,-8.66355,1.2));
#1019 = CARTESIAN_POINT('',(-19.0548,10.6407,1.2));
#1020 = VECTOR('',#1021,1.);
#1021 = DIRECTION('',(-0.,-0.,-1.));
#1022 = ADVANCED_FACE('',(#1023),#1026,.T.);
#1023 = FACE_BOUND('',#1024,.F.);
#1024 = EDGE_LOOP('',(#1025));
#1025 = ORIENTED_EDGE('',*,*,#970,.T.);
#1026 = PLANE('',#1027);
#1027 = AXIS2_PLACEMENT_3D('',#1028,#1029,#1030);
#1028 = CARTESIAN_POINT('',(1.153987432492E-02,-4.618259691974E-02,3.33)
  );
#1029 = DIRECTION('',(0.,0.,1.));
#1030 = DIRECTION('',(1.,0.,0.));
#1031 = ( GEOMETRIC_REPRESENTATION_CONTEXT(3) 
GLOBAL_UNCERTAINTY_ASSIGNED_CONTEXT((#1035)) 
GLOBAL_UNIT_ASSIGNED_CONTEXT((#1032,#1033,#1034)) REPRESENTATION_CONTEXT
('Context #1','3D Context with UNIT and UNCERTAINTY') );
#1032 = ( LENGTH_UNIT() NAMED_UNIT(*) SI_UNIT(.MILLI.,.METRE.) );
#1033 = ( NAMED_UNIT(*) PLANE_ANGLE_UNIT() SI_UNIT($,.RADIAN.) );
#1034 = ( NAMED_UNIT(*) SI_UNIT($,.STERADIAN.) SOLID_ANGLE_UNIT() );
#1035 = UNCERTAINTY_MEASURE_WITH_UNIT(LENGTH_MEASURE(1.E-07),#1032,
  'distance_accuracy_value','confusion accuracy');
#1036 = CONTEXT_DEPENDENT_SHAPE_REPRESENTATION(#1037,#1039);
#1037 = ( REPRESENTATION_RELATIONSHIP('','',#32,#10) 
REPRESENTATION_RELATIONSHIP_WITH_TRANSFORMATION(#1038) 
SHAPE_REPRESENTATION_RELATIONSHIP() );
#1038 = ITEM_DEFINED_TRANSFORMATION('','',#11,#15);
#1039 = PRODUCT_DEFINITION_SHAPE('Placement','Placement of an item',
  #1040);
#1040 = NEXT_ASSEMBLY_USAGE_OCCURRENCE('1','Body','',#5,#27,$);
#1041 = PRODUCT_RELATED_PRODUCT_CATEGORY('part',$,(#29));
#1042 = MECHANICAL_DESIGN_GEOMETRIC_PRESENTATION_REPRESENTATION('',(
    #1043),#1031);
#1043 = STYLED_ITEM('color',(#1044),#33);
#1044 = PRESENTATION_STYLE_ASSIGNMENT((#1045,#1053));
#1045 = SURFACE_STYLE_USAGE(.BOTH.,#1046);
#1046 = SURFACE_SIDE_STYLE('',(#1047,#1051));
#1047 = SURFACE_STYLE_FILL_AREA(#1048);
#1048 = FILL_AREA_STYLE('',(#1049));
#1049 = FILL_AREA_STYLE_COLOUR('',#1050);
#1050 = COLOUR_RGB('',0.560101876835,0.63257926125,0.75978498189);
#1051 = SURFACE_STYLE_RENDERING_WITH_PROPERTIES(.NORMAL_SHADING.,#1050,(
    #1052));
#1052 = SURFACE_STYLE_TRANSPARENT(0.699999988079);
#1053 = CURVE_STYLE('',#1054,POSITIVE_LENGTH_MEASURE(0.1),#1055);
#1054 = DRAUGHTING_PRE_DEFINED_CURVE_FONT('continuous');
#1055 = COLOUR_RGB('',9.803921802644E-02,9.803921802644E-02,
  9.803921802644E-02);
ENDSEC;
END-ISO-10303-21;
